<?xml version="1.0" encoding="UTF-8"?>
<svg width="160px" height="64px" viewBox="0 0 160 64" version="1.1" xmlns="http://www.w3.org/2000/svg" xmlns:xlink="http://www.w3.org/1999/xlink">
    <!-- Generator: Sketch 46.2 (44496) - http://www.bohemiancoding.com/sketch -->
    <title>Banner</title>
    <desc>Created with Sketch.</desc>
    <defs></defs>
    <g id="Page-1" stroke="none" stroke-width="1" fill="none" fill-rule="evenodd">
        <g id="Banner">
            <rect id="background" fill="#243746" x="0" y="0" width="160" height="64"></rect>
            <path d="M77.528,33.152 C77.5520001,33.1760001 77.564,33.2119998 77.564,33.26 C77.564,33.3800006 77.4920007,33.4639998 77.348,33.512 L68.888,37.04 L68.888,49.712 C68.888,49.904001 68.792001,50 68.6,50 L67.88,50 C67.687999,50 67.592,49.904001 67.592,49.712 L67.592,33.08 C67.592,32.9359993 67.6639993,32.8280004 67.808,32.756 L68.564,32.468 L68.672,32.432 C68.7200002,32.432 68.7679998,32.4559998 68.816,32.504 C68.8640002,32.5520002 68.888,32.6239995 68.888,32.72 L68.888,35.708 L76.916,32.396 C76.9400001,32.3719999 76.9759998,32.36 77.024,32.36 C77.1440006,32.36 77.2279998,32.4199994 77.276,32.54 L77.528,33.152 Z M86.96,50.432 C85.567993,50.432 84.2480062,50.0780035 83,49.37 C81.7519938,48.6619965 80.7380039,47.6240068 79.958,46.256 C79.1779961,44.8879932 78.788,43.2560095 78.788,41.36 C78.788,39.4639905 79.1779961,37.8320068 79.958,36.464 C80.7380039,35.0959932 81.7519938,34.0580035 83,33.35 C84.2480062,32.6419965 85.567993,32.288 86.96,32.288 C88.5440079,32.288 89.935994,32.6779961 91.136,33.458 C92.336006,34.2380039 93.2119972,35.2399939 93.764,36.464 L93.764,33.08 C93.764,32.9359993 93.8359993,32.8280004 93.98,32.756 L94.736,32.468 L94.844,32.432 C94.8920002,32.432 94.9399998,32.4559998 94.988,32.504 C95.0360002,32.5520002 95.06,32.6239995 95.06,32.72 L95.06,49.712 C95.06,49.904001 94.964001,50 94.772,50 L94.052,50 C93.859999,50 93.764,49.904001 93.764,49.712 L93.764,46.256 C93.2119972,47.4800061 92.336006,48.4819961 91.136,49.262 C89.935994,50.0420039 88.5440079,50.432 86.96,50.432 Z M86.96,49.136 C88.8800096,49.136 90.4939935,48.5060063 91.802,47.246 C93.1100065,45.9859937 93.764,44.0240133 93.764,41.36 C93.764,39.6559915 93.4460032,38.2160059 92.81,37.04 C92.1739968,35.8639941 91.3340052,34.9940028 90.29,34.43 C89.2459948,33.8659972 88.1360059,33.584 86.96,33.584 C85.7839941,33.584 84.6740052,33.883997 83.63,34.484 C82.5859948,35.084003 81.7340033,35.9719941 81.074,37.148 C80.4139967,38.3240059 80.084,39.7279918 80.084,41.36 C80.084,42.9920082 80.4139967,44.3959941 81.074,45.572 C81.7340033,46.7480059 82.5859948,47.635997 83.63,48.236 C84.6740052,48.836003 85.7839941,49.136 86.96,49.136 Z M107.48,50.432 C106.087993,50.432 104.768006,50.0780035 103.52,49.37 C102.271994,48.6619965 101.258004,47.6240068 100.478,46.256 C99.6979961,44.8879932 99.308,43.2560095 99.308,41.36 C99.308,39.4639905 99.6979961,37.8320068 100.478,36.464 C101.258004,35.0959932 102.271994,34.0580035 103.52,33.35 C104.768006,32.6419965 106.087993,32.288 107.48,32.288 C109.064008,32.288 110.455994,32.6779961 111.656,33.458 C112.856006,34.2380039 113.731997,35.2399939 114.284,36.464 L114.284,25.088 C114.284,24.9439993 114.355999,24.8360004 114.5,24.764 L115.256,24.476 L115.364,24.44 C115.412,24.44 115.46,24.4639998 115.508,24.512 C115.556,24.5600002 115.58,24.6319995 115.58,24.728 L115.58,49.712 C115.58,49.904001 115.484001,50 115.292,50 L114.572,50 C114.379999,50 114.284,49.904001 114.284,49.712 L114.284,46.256 C113.731997,47.4800061 112.856006,48.4819961 111.656,49.262 C110.455994,50.0420039 109.064008,50.432 107.48,50.432 Z M107.48,49.136 C109.40001,49.136 111.013993,48.5060063 112.322,47.246 C113.630007,45.9859937 114.284,44.0240133 114.284,41.36 C114.284,39.6559915 113.966003,38.2160059 113.33,37.04 C112.693997,35.8639941 111.854005,34.9940028 110.81,34.43 C109.765995,33.8659972 108.656006,33.584 107.48,33.584 C106.303994,33.584 105.194005,33.883997 104.15,34.484 C103.105995,35.084003 102.254003,35.9719941 101.594,37.148 C100.933997,38.3240059 100.604,39.7279918 100.604,41.36 C100.604,42.9920082 100.933997,44.3959941 101.594,45.572 C102.254003,46.7480059 103.105995,47.635997 104.15,48.236 C105.194005,48.836003 106.303994,49.136 107.48,49.136 Z M121.088,29.948 C121.04,29.948 120.992,29.9180003 120.944,29.858 C120.896,29.7979997 120.872,29.7320004 120.872,29.66 L120.872,27.5 C120.872,27.3559993 120.943999,27.2480004 121.088,27.176 L121.988,26.816 C122.012,26.7919999 122.06,26.78 122.132,26.78 C122.252001,26.78 122.312,26.8639992 122.312,27.032 L122.312,29.264 C122.312,29.4080007 122.240001,29.5159996 122.096,29.588 L121.196,29.912 L121.088,29.948 Z M121.232,50 C121.039999,50 120.944,49.904001 120.944,49.712 L120.944,33.08 C120.944,32.9359993 121.015999,32.8280004 121.16,32.756 L121.916,32.468 L122.024,32.432 C122.072,32.432 122.12,32.4559998 122.168,32.504 C122.216,32.5520002 122.24,32.6239995 122.24,32.72 L122.24,49.712 C122.24,49.904001 122.144001,50 121.952,50 L121.232,50 Z M139.448,49.82 C139.448,49.9400006 139.364001,50 139.196,50 L138.296,50 C138.127999,50 138.008,49.9400006 137.936,49.82 L132.68,42.332 L127.424,49.82 C127.376,49.9400006 127.256001,50 127.064,50 L126.164,50 C126.043999,50 125.966,49.9640004 125.93,49.892 C125.894,49.8199996 125.912,49.7360005 125.984,49.64 L131.888,41.216 L126.164,33.08 L126.092,32.9 C126.092,32.7799994 126.175999,32.72 126.344,32.72 L127.244,32.72 C127.436001,32.72 127.556,32.7799994 127.604,32.9 L132.68,40.136 L137.756,32.9 C137.828,32.7799994 137.947999,32.72 138.116,32.72 L139.016,32.72 C139.136001,32.72 139.214,32.7559996 139.25,32.828 C139.286,32.9000004 139.268,32.9839995 139.196,33.08 L133.472,41.216 L139.376,49.64 L139.448,49.82 Z" id="radix" fill="#DEFAEB"></path>
            <path d="M106.074,21.168 C105.41133,21.168 104.816336,21.0163348 104.289,20.713 C103.761664,20.4096652 103.351001,19.9896693 103.057,19.453 C102.762999,18.9163306 102.616,18.3120034 102.616,17.64 C102.616,16.9679966 102.762999,16.3636694 103.057,15.827 C103.351001,15.2903306 103.761664,14.8703349 104.289,14.567 C104.816336,14.2636651 105.41133,14.112 106.074,14.112 C106.73667,14.112 107.329331,14.2636651 107.852,14.567 C108.374669,14.8703349 108.782999,15.2903306 109.077,15.827 C109.371001,16.3636694 109.518,16.9679966 109.518,17.64 C109.518,18.3120034 109.371001,18.9163306 109.077,19.453 C108.782999,19.9896693 108.374669,20.4096652 107.852,20.713 C107.329331,21.0163348 106.73667,21.168 106.074,21.168 Z M106.074,19.992 C106.746003,19.992 107.282665,19.7680022 107.684,19.32 C108.085335,18.8719978 108.286,18.3120034 108.286,17.64 C108.286,16.9679966 108.085335,16.4080022 107.684,15.96 C107.282665,15.5119978 106.746003,15.288 106.074,15.288 C105.392663,15.288 104.851335,15.5119978 104.45,15.96 C104.048665,16.4080022 103.848,16.9679966 103.848,17.64 C103.848,18.3120034 104.048665,18.8719978 104.45,19.32 C104.851335,19.7680022 105.392663,19.992 106.074,19.992 Z M111.184,21 C111.118666,21 111.067334,20.9813335 111.03,20.944 C110.992666,20.9066665 110.974,20.8553337 110.974,20.79 L110.974,14.756 C110.974,14.6346661 111.029999,14.5553335 111.142,14.518 L111.94,14.224 C111.958667,14.2146666 111.986666,14.21 112.024,14.21 C112.126667,14.21 112.178,14.2706661 112.178,14.392 L112.178,15.106 C112.402001,14.7793317 112.681998,14.5320008 113.018,14.364 C113.354002,14.1959992 113.713331,14.112 114.096,14.112 C114.488002,14.112 114.851998,14.2076657 115.188,14.399 C115.524002,14.5903343 115.794666,14.8773314 116,15.26 C116.261335,14.8493313 116.580998,14.5553342 116.959,14.378 C117.337002,14.2006658 117.731331,14.112 118.142,14.112 C118.907337,14.112 119.504665,14.3499976 119.934,14.826 C120.363335,15.3020024 120.578,16.0206619 120.578,16.982 L120.578,20.79 C120.578,20.8553337 120.559334,20.9066665 120.522,20.944 C120.484666,20.9813335 120.433334,21 120.368,21 L119.584,21 C119.518666,21 119.467334,20.9813335 119.43,20.944 C119.392666,20.9066665 119.374,20.8553337 119.374,20.79 L119.374,17.136 C119.374,16.5479971 119.243335,16.0953349 118.982,15.778 C118.720665,15.4606651 118.352002,15.302 117.876,15.302 C117.399998,15.302 117.031335,15.4606651 116.77,15.778 C116.508665,16.0953349 116.378,16.5479971 116.378,17.136 L116.378,20.79 C116.378,20.8553337 116.359334,20.9066665 116.322,20.944 C116.284666,20.9813335 116.233334,21 116.168,21 L115.384,21 C115.318666,21 115.267334,20.9813335 115.23,20.944 C115.192666,20.9066665 115.174,20.8553337 115.174,20.79 L115.174,17.136 C115.174,16.5479971 115.043335,16.0953349 114.782,15.778 C114.520665,15.4606651 114.152002,15.302 113.676,15.302 C113.199998,15.302 112.831335,15.4606651 112.57,15.778 C112.308665,16.0953349 112.178,16.5479971 112.178,17.136 L112.178,20.79 C112.178,20.8553337 112.159334,20.9066665 112.122,20.944 C112.084666,20.9813335 112.033334,21 111.968,21 L111.184,21 Z M122.356,21 C122.290666,21 122.239334,20.9813335 122.202,20.944 C122.164666,20.9066665 122.146,20.8553337 122.146,20.79 L122.146,14.756 C122.146,14.6346661 122.201999,14.5553335 122.314,14.518 L123.112,14.224 C123.130667,14.2146666 123.158666,14.21 123.196,14.21 C123.298667,14.21 123.35,14.2706661 123.35,14.392 L123.35,15.106 C123.592668,14.7513316 123.893665,14.4970008 124.253,14.343 C124.612335,14.1889992 124.992665,14.112 125.394,14.112 C125.907336,14.112 126.369331,14.2263322 126.78,14.455 C127.190669,14.6836678 127.514999,15.0243311 127.753,15.477 C127.991001,15.9296689 128.11,16.4779968 128.11,17.122 L128.11,20.79 C128.11,20.8553337 128.091334,20.9066665 128.054,20.944 C128.016666,20.9813335 127.965334,21 127.9,21 L127.116,21 C127.050666,21 126.999334,20.9813335 126.962,20.944 C126.924666,20.9066665 126.906,20.8553337 126.906,20.79 L126.906,17.164 C126.906,16.5759971 126.749668,16.1186683 126.437,15.792 C126.124332,15.4653317 125.702003,15.302 125.17,15.302 C124.628664,15.302 124.190002,15.467665 123.854,15.799 C123.517998,16.130335 123.35,16.5853304 123.35,17.164 L123.35,20.79 C123.35,20.8553337 123.331334,20.9066665 123.294,20.944 C123.256666,20.9813335 123.205334,21 123.14,21 L122.356,21 Z M129.916,13.51 C129.897333,13.5193334 129.869334,13.524 129.832,13.524 C129.729333,13.524 129.678,13.4633339 129.678,13.342 L129.678,12.348 C129.678,12.2266661 129.733999,12.1473335 129.846,12.11 L130.728,11.774 C130.746667,11.7646666 130.774666,11.76 130.812,11.76 C130.914667,11.76 130.966,11.8206661 130.966,11.942 L130.966,12.978 C130.966,13.0900006 130.910001,13.1693331 130.798,13.216 L129.916,13.51 Z M129.93,21 C129.864666,21 129.813334,20.9813335 129.776,20.944 C129.738666,20.9066665 129.72,20.8553337 129.72,20.79 L129.72,14.756 C129.72,14.6346661 129.775999,14.5553335 129.888,14.518 L130.686,14.224 C130.704667,14.2146666 130.732666,14.21 130.77,14.21 C130.872667,14.21 130.924,14.2706661 130.924,14.392 L130.924,20.79 C130.924,20.8553337 130.905334,20.9066665 130.868,20.944 C130.830666,20.9813335 130.779334,21 130.714,21 L129.93,21 Z M135.782,21.168 C135.09133,21.168 134.494003,21.0093349 133.99,20.692 C133.485997,20.3746651 133.098668,19.945336 132.828,19.404 C132.557332,18.862664 132.422,18.2700032 132.422,17.626 C132.422,16.9353299 132.578332,16.3216694 132.891,15.785 C133.203668,15.2483306 133.621331,14.8353348 134.144,14.546 C134.666669,14.2566652 135.235997,14.112 135.852,14.112 C136.318669,14.112 136.750331,14.1959992 137.147,14.364 C137.543669,14.5320008 137.849332,14.7606652 138.064,15.05 L138.064,14.756 C138.064,14.6346661 138.119999,14.5553335 138.232,14.518 L139.03,14.224 C139.086,14.2053332 139.118667,14.196 139.128,14.196 C139.221334,14.196 139.268,14.2566661 139.268,14.378 L139.268,20.79 C139.268,20.8553337 139.249334,20.9066665 139.212,20.944 C139.174666,20.9813335 139.123334,21 139.058,21 L138.274,21 C138.208666,21 138.157334,20.9813335 138.12,20.944 C138.082666,20.9066665 138.064,20.8553337 138.064,20.79 L138.064,20.244 C137.858666,20.4960013 137.543669,20.7129991 137.119,20.895 C136.694331,21.0770009 136.248669,21.168 135.782,21.168 Z M135.866,19.978 C136.519337,19.978 137.051331,19.7726687 137.462,19.362 C137.872669,18.9513313 138.078,18.3726704 138.078,17.626 C138.078,16.8793296 137.872669,16.303002 137.462,15.897 C137.051331,15.490998 136.519337,15.288 135.866,15.288 C135.240664,15.288 134.715669,15.4933313 134.291,15.904 C133.866331,16.3146687 133.654,16.888663 133.654,17.626 C133.654,18.363337 133.866331,18.9396646 134.291,19.355 C134.715669,19.7703354 135.240664,19.978 135.866,19.978 Z" id="omnia" fill="#DEFAEB"></path>
            <g id="Logo" transform="translate(16.000000, 13.000000)" stroke="#DEFAEB" stroke-linecap="round" stroke-linejoin="round">
                <path d="M11.5010505,14.0323946 C11.3403919,11.5578896 12.1560444,8.07992142 13.8618254,5.35688088 C16.1748936,1.66439148 19.8748111,-0.5 25,-0.5 L25.5,-0.5 L25.5,-1.04966541e-15 C25.5,10.0701025 20.0593151,14.9048912 11.974951,14.4993722 L11.52992,14.477049 L11.5010505,14.0323946 Z" id="leaf"></path>
                <path d="M19,6 C15.6666667,8.66666667 13.3333333,11.3333333 12,14 C9.33333333,18 11.6666667,26 19,38" id="stem"></path>
                <path d="M14,28 C19.6666667,32 25.3333333,33.4166667 31,32.25" id="root-1"></path>
                <path d="M16,33 C12,36.3333333 8,37.3333333 4,36" id="root-2"></path>
                <path d="M12,24 C11,28 8,32 0,33" id="root-3"></path>
            </g>
        </g>
    </g>
</svg>