<?xml version="1.0" encoding="UTF-8"?>
<svg width="320px" height="320px" viewBox="0 0 320 320" version="1.1" xmlns="http://www.w3.org/2000/svg" xmlns:xlink="http://www.w3.org/1999/xlink">
    <!-- Generator: Sketch 46.2 (44496) - http://www.bohemiancoding.com/sketch -->
    <title>radix</title>
    <desc>Created with Sketch.</desc>
    <defs></defs>
    <g id="Page-1" stroke="none" stroke-width="1" fill="none" fill-rule="evenodd">
        <g id="Banner" transform="translate(20.000000, 110.000000)">
            <rect id="background" fill="#243746" x="0" y="0" width="160" height="64"></rect>
            <text id="radix" font-family="EquinorBeta-Light, Equinor Beta" font-size="36" font-weight="300" fill="#DEFAEB">
                <tspan x="65" y="50">radix</tspan>
            </text>
            <text id="omnia" font-family="EquinorBeta-Medium, Equinor Beta" font-size="14" font-weight="400" fill="#DEFAEB">
                <tspan x="102" y="21">omnia</tspan>
            </text>
            <g id="Logo" transform="translate(16.000000, 13.000000)" stroke="#DEFAEB" stroke-linecap="round" stroke-linejoin="round">
                <path d="M11.5010505,14.0323946 C11.3403919,11.5578896 12.1560444,8.07992142 13.8618254,5.35688088 C16.1748936,1.66439148 19.8748111,-0.5 25,-0.5 L25.5,-0.5 L25.5,-1.04966541e-15 C25.5,10.0701025 20.0593151,14.9048912 11.974951,14.4993722 L11.52992,14.477049 L11.5010505,14.0323946 Z" id="leaf"></path>
                <path d="M19,6 C15.6666667,8.66666667 13.3333333,11.3333333 12,14 C9.33333333,18 11.6666667,26 19,38" id="stem"></path>
                <path d="M14,28 C19.6666667,32 25.3333333,33.4166667 31,32.25" id="root-1"></path>
                <path d="M16,33 C12,36.3333333 8,37.3333333 4,36" id="root-2"></path>
                <path d="M12,24 C11,28 8,32 0,33" id="root-3"></path>
            </g>
        </g>
        <g id="Logo-slate-blue" transform="translate(248.000000, 20.000000)" stroke="#243746" stroke-linecap="round" stroke-linejoin="round">
            <path d="M19.5010505,19.0323946 C19.3403919,16.5578896 20.1560444,13.0799214 21.8618254,10.3568809 C24.1748936,6.66439148 27.8748111,4.5 33,4.5 L33.5,4.5 L33.5,5 C33.5,15.0701025 28.0593151,19.9048912 19.974951,19.4993722 L19.52992,19.477049 L19.5010505,19.0323946 Z" id="leaf"></path>
            <path d="M27,11 C23.6666667,13.6666667 21.3333333,16.3333333 20,19 C17.3333333,23 19.6666667,31 27,43" id="stem"></path>
            <path d="M22,33 C27.6666667,37 33.3333333,38.4166667 39,37.25" id="root-1"></path>
            <path d="M24,38 C20,41.3333333 16,42.3333333 12,41" id="root-2"></path>
            <path d="M20,29 C19,33 16,37 8,38" id="root-3"></path>
        </g>
        <g id="Logo-moss-green" transform="translate(175.000000, 20.000000)" stroke="#007079" stroke-linecap="round" stroke-linejoin="round">
            <path d="M19.5010505,19.0323946 C19.3403919,16.5578896 20.1560444,13.0799214 21.8618254,10.3568809 C24.1748936,6.66439148 27.8748111,4.5 33,4.5 L33.5,4.5 L33.5,5 C33.5,15.0701025 28.0593151,19.9048912 19.974951,19.4993722 L19.52992,19.477049 L19.5010505,19.0323946 Z" id="leaf"></path>
            <path d="M27,11 C23.6666667,13.6666667 21.3333333,16.3333333 20,19 C17.3333333,23 19.6666667,31 27,43" id="stem"></path>
            <path d="M22,33 C27.6666667,37 33.3333333,38.4166667 39,37.25" id="root-1"></path>
            <path d="M24,38 C20,41.3333333 16,42.3333333 12,41" id="root-2"></path>
            <path d="M20,29 C19,33 16,37 8,38" id="root-3"></path>
        </g>
        <g id="Logo-energy-red" transform="translate(102.000000, 20.000000)" stroke="#FF1243" stroke-linecap="round" stroke-linejoin="round">
            <path d="M19.5010505,19.0323946 C19.3403919,16.5578896 20.1560444,13.0799214 21.8618254,10.3568809 C24.1748936,6.66439148 27.8748111,4.5 33,4.5 L33.5,4.5 L33.5,5 C33.5,15.0701025 28.0593151,19.9048912 19.974951,19.4993722 L19.52992,19.477049 L19.5010505,19.0323946 Z" id="leaf"></path>
            <path d="M27,11 C23.6666667,13.6666667 21.3333333,16.3333333 20,19 C17.3333333,23 19.6666667,31 27,43" id="stem"></path>
            <path d="M22,33 C27.6666667,37 33.3333333,38.4166667 39,37.25" id="root-1"></path>
            <path d="M24,38 C20,41.3333333 16,42.3333333 12,41" id="root-2"></path>
            <path d="M20,29 C19,33 16,37 8,38" id="root-3"></path>
        </g>
        <g id="Logo-building" transform="translate(20.000000, 20.000000)" stroke-linecap="round" stroke="#333333" stroke-linejoin="round">
            <g id="Logo" transform="translate(9.000000, 5.000000)">
                <path d="M11.5010505,14.0323946 C11.3403919,11.5578896 12.1560444,8.07992142 13.8618254,5.35688088 C16.1748936,1.66439148 19.8748111,-0.5 25,-0.5 L25.5,-0.5 L25.5,-1.04966541e-15 C25.5,10.0701025 20.0593151,14.9048912 11.974951,14.4993722 L11.52992,14.477049 L11.5010505,14.0323946 Z" id="leaf"></path>
                <path d="M19,6 C15.6666667,8.66666667 13.3333333,11.3333333 12,14 C9.33333333,18 11.6666667,26 19,38" id="stem"></path>
                <path d="M14,28 C19.6666667,32 25.3333333,33.4166667 31,32.25" id="root-1"></path>
                <path d="M16,33 C12,36.3333333 8,37.3333333 4,36" id="root-2"></path>
                <path d="M12,24 C11,28 8,32 0,33" id="root-3"></path>
            </g>
        </g>
    </g>
</svg>