<?xml version="1.0" encoding="UTF-8"?>
<svg width="124px" height="40px" viewBox="0 0 124 40" version="1.1" xmlns="http://www.w3.org/2000/svg" xmlns:xlink="http://www.w3.org/1999/xlink">
    <!-- Generator: Sketch 46.2 (44496) - http://www.bohemiancoding.com/sketch -->
    <title>Banner energy red</title>
    <desc>Created with Sketch.</desc>
    <defs></defs>
    <g id="Page-1" stroke="none" stroke-width="1" fill="none" fill-rule="evenodd">
        <g id="Banner-energy-red">
            <path d="M61.528,22.152 C61.5520001,22.1760001 61.564,22.2119998 61.564,22.26 C61.564,22.3800006 61.4920007,22.4639998 61.348,22.512 L52.888,26.04 L52.888,38.712 C52.888,38.904001 52.792001,39 52.6,39 L51.88,39 C51.687999,39 51.592,38.904001 51.592,38.712 L51.592,22.08 C51.592,21.9359993 51.6639993,21.8280004 51.808,21.756 L52.564,21.468 L52.672,21.432 C52.7200002,21.432 52.7679998,21.4559998 52.816,21.504 C52.8640002,21.5520002 52.888,21.6239995 52.888,21.72 L52.888,24.708 L60.916,21.396 C60.9400001,21.3719999 60.9759998,21.36 61.024,21.36 C61.1440006,21.36 61.2279998,21.4199994 61.276,21.54 L61.528,22.152 Z M70.96,39.432 C69.567993,39.432 68.2480062,39.0780035 67,38.37 C65.7519938,37.6619965 64.7380039,36.6240068 63.958,35.256 C63.1779961,33.8879932 62.788,32.2560095 62.788,30.36 C62.788,28.4639905 63.1779961,26.8320068 63.958,25.464 C64.7380039,24.0959932 65.7519938,23.0580035 67,22.35 C68.2480062,21.6419965 69.567993,21.288 70.96,21.288 C72.5440079,21.288 73.935994,21.6779961 75.136,22.458 C76.336006,23.2380039 77.2119972,24.2399939 77.764,25.464 L77.764,22.08 C77.764,21.9359993 77.8359993,21.8280004 77.98,21.756 L78.736,21.468 L78.844,21.432 C78.8920002,21.432 78.9399998,21.4559998 78.988,21.504 C79.0360002,21.5520002 79.06,21.6239995 79.06,21.72 L79.06,38.712 C79.06,38.904001 78.964001,39 78.772,39 L78.052,39 C77.859999,39 77.764,38.904001 77.764,38.712 L77.764,35.256 C77.2119972,36.4800061 76.336006,37.4819961 75.136,38.262 C73.935994,39.0420039 72.5440079,39.432 70.96,39.432 Z M70.96,38.136 C72.8800096,38.136 74.4939935,37.5060063 75.802,36.246 C77.1100065,34.9859937 77.764,33.0240133 77.764,30.36 C77.764,28.6559915 77.4460032,27.2160059 76.81,26.04 C76.1739968,24.8639941 75.3340052,23.9940028 74.29,23.43 C73.2459948,22.8659972 72.1360059,22.584 70.96,22.584 C69.7839941,22.584 68.6740052,22.883997 67.63,23.484 C66.5859948,24.084003 65.7340033,24.9719941 65.074,26.148 C64.4139967,27.3240059 64.084,28.7279918 64.084,30.36 C64.084,31.9920082 64.4139967,33.3959941 65.074,34.572 C65.7340033,35.7480059 66.5859948,36.635997 67.63,37.236 C68.6740052,37.836003 69.7839941,38.136 70.96,38.136 Z M91.48,39.432 C90.087993,39.432 88.7680062,39.0780035 87.52,38.37 C86.2719938,37.6619965 85.2580039,36.6240068 84.478,35.256 C83.6979961,33.8879932 83.308,32.2560095 83.308,30.36 C83.308,28.4639905 83.6979961,26.8320068 84.478,25.464 C85.2580039,24.0959932 86.2719938,23.0580035 87.52,22.35 C88.7680062,21.6419965 90.087993,21.288 91.48,21.288 C93.0640079,21.288 94.455994,21.6779961 95.656,22.458 C96.856006,23.2380039 97.7319972,24.2399939 98.284,25.464 L98.284,14.088 C98.284,13.9439993 98.3559993,13.8360004 98.5,13.764 L99.256,13.476 L99.364,13.44 C99.4120002,13.44 99.4599998,13.4639998 99.508,13.512 C99.5560002,13.5600002 99.58,13.6319995 99.58,13.728 L99.58,38.712 C99.58,38.904001 99.484001,39 99.292,39 L98.572,39 C98.379999,39 98.284,38.904001 98.284,38.712 L98.284,35.256 C97.7319972,36.4800061 96.856006,37.4819961 95.656,38.262 C94.455994,39.0420039 93.0640079,39.432 91.48,39.432 Z M91.48,38.136 C93.4000096,38.136 95.0139935,37.5060063 96.322,36.246 C97.6300065,34.9859937 98.284,33.0240133 98.284,30.36 C98.284,28.6559915 97.9660032,27.2160059 97.33,26.04 C96.6939968,24.8639941 95.8540052,23.9940028 94.81,23.43 C93.7659948,22.8659972 92.6560059,22.584 91.48,22.584 C90.3039941,22.584 89.1940052,22.883997 88.15,23.484 C87.1059948,24.084003 86.2540033,24.9719941 85.594,26.148 C84.9339967,27.3240059 84.604,28.7279918 84.604,30.36 C84.604,31.9920082 84.9339967,33.3959941 85.594,34.572 C86.2540033,35.7480059 87.1059948,36.635997 88.15,37.236 C89.1940052,37.836003 90.3039941,38.136 91.48,38.136 Z M105.088,18.948 C105.04,18.948 104.992,18.9180003 104.944,18.858 C104.896,18.7979997 104.872,18.7320004 104.872,18.66 L104.872,16.5 C104.872,16.3559993 104.943999,16.2480004 105.088,16.176 L105.988,15.816 C106.012,15.7919999 106.06,15.78 106.132,15.78 C106.252001,15.78 106.312,15.8639992 106.312,16.032 L106.312,18.264 C106.312,18.4080007 106.240001,18.5159996 106.096,18.588 L105.196,18.912 L105.088,18.948 Z M105.232,39 C105.039999,39 104.944,38.904001 104.944,38.712 L104.944,22.08 C104.944,21.9359993 105.015999,21.8280004 105.16,21.756 L105.916,21.468 L106.024,21.432 C106.072,21.432 106.12,21.4559998 106.168,21.504 C106.216,21.5520002 106.24,21.6239995 106.24,21.72 L106.24,38.712 C106.24,38.904001 106.144001,39 105.952,39 L105.232,39 Z M123.448,38.82 C123.448,38.9400006 123.364001,39 123.196,39 L122.296,39 C122.127999,39 122.008,38.9400006 121.936,38.82 L116.68,31.332 L111.424,38.82 C111.376,38.9400006 111.256001,39 111.064,39 L110.164,39 C110.043999,39 109.966,38.9640004 109.93,38.892 C109.894,38.8199996 109.912,38.7360005 109.984,38.64 L115.888,30.216 L110.164,22.08 L110.092,21.9 C110.092,21.7799994 110.175999,21.72 110.344,21.72 L111.244,21.72 C111.436001,21.72 111.556,21.7799994 111.604,21.9 L116.68,29.136 L121.756,21.9 C121.828,21.7799994 121.947999,21.72 122.116,21.72 L123.016,21.72 C123.136001,21.72 123.214,21.7559996 123.25,21.828 C123.286,21.9000004 123.268,21.9839995 123.196,22.08 L117.472,30.216 L123.376,38.64 L123.448,38.82 Z" id="radix" fill="#FF1243"></path>
            <path d="M90.074,10.168 C89.41133,10.168 88.816336,10.0163349 88.289,9.713 C87.761664,9.40966515 87.3510015,8.98966935 87.057,8.453 C86.7629985,7.91633065 86.616,7.31200336 86.616,6.64 C86.616,5.96799664 86.7629985,5.36366935 87.057,4.827 C87.3510015,4.29033065 87.761664,3.87033485 88.289,3.567 C88.816336,3.26366515 89.41133,3.112 90.074,3.112 C90.73667,3.112 91.3293307,3.26366515 91.852,3.567 C92.3746693,3.87033485 92.7829985,4.29033065 93.077,4.827 C93.3710015,5.36366935 93.518,5.96799664 93.518,6.64 C93.518,7.31200336 93.3710015,7.91633065 93.077,8.453 C92.7829985,8.98966935 92.3746693,9.40966515 91.852,9.713 C91.3293307,10.0163349 90.73667,10.168 90.074,10.168 Z M90.074,8.992 C90.7460034,8.992 91.2826647,8.76800224 91.684,8.32 C92.0853353,7.87199776 92.286,7.31200336 92.286,6.64 C92.286,5.96799664 92.0853353,5.40800224 91.684,4.96 C91.2826647,4.51199776 90.7460034,4.288 90.074,4.288 C89.3926633,4.288 88.8513353,4.51199776 88.45,4.96 C88.0486647,5.40800224 87.848,5.96799664 87.848,6.64 C87.848,7.31200336 88.0486647,7.87199776 88.45,8.32 C88.8513353,8.76800224 89.3926633,8.992 90.074,8.992 Z M95.184,10 C95.1186663,10 95.0673335,9.98133352 95.03,9.944 C94.9926665,9.90666648 94.974,9.85533366 94.974,9.79 L94.974,3.756 C94.974,3.63466606 95.0299994,3.55533352 95.142,3.518 L95.94,3.224 C95.9586668,3.21466662 95.9866665,3.21 96.024,3.21 C96.1266672,3.21 96.178,3.27066606 96.178,3.392 L96.178,4.106 C96.4020011,3.7793317 96.6819983,3.53200084 97.018,3.364 C97.3540017,3.19599916 97.7133314,3.112 98.096,3.112 C98.488002,3.112 98.8519983,3.20766571 99.188,3.399 C99.5240017,3.59033429 99.7946656,3.87733142 100,4.26 C100.261335,3.84933128 100.580998,3.55533422 100.959,3.378 C101.337002,3.20066578 101.731331,3.112 102.142,3.112 C102.907337,3.112 103.504665,3.34999762 103.934,3.826 C104.363335,4.30200238 104.578,5.02066186 104.578,5.982 L104.578,9.79 C104.578,9.85533366 104.559334,9.90666648 104.522,9.944 C104.484666,9.98133352 104.433334,10 104.368,10 L103.584,10 C103.518666,10 103.467334,9.98133352 103.43,9.944 C103.392666,9.90666648 103.374,9.85533366 103.374,9.79 L103.374,6.136 C103.374,5.54799706 103.243335,5.09533492 102.982,4.778 C102.720665,4.46066508 102.352002,4.302 101.876,4.302 C101.399998,4.302 101.031335,4.46066508 100.77,4.778 C100.508665,5.09533492 100.378,5.54799706 100.378,6.136 L100.378,9.79 C100.378,9.85533366 100.359334,9.90666648 100.322,9.944 C100.284666,9.98133352 100.233334,10 100.168,10 L99.384,10 C99.3186663,10 99.2673335,9.98133352 99.23,9.944 C99.1926665,9.90666648 99.174,9.85533366 99.174,9.79 L99.174,6.136 C99.174,5.54799706 99.0433346,5.09533492 98.782,4.778 C98.5206654,4.46066508 98.1520024,4.302 97.676,4.302 C97.1999976,4.302 96.8313346,4.46066508 96.57,4.778 C96.3086654,5.09533492 96.178,5.54799706 96.178,6.136 L96.178,9.79 C96.178,9.85533366 96.1593335,9.90666648 96.122,9.944 C96.0846665,9.98133352 96.0333337,10 95.968,10 L95.184,10 Z M106.356,10 C106.290666,10 106.239334,9.98133352 106.202,9.944 C106.164666,9.90666648 106.146,9.85533366 106.146,9.79 L106.146,3.756 C106.146,3.63466606 106.201999,3.55533352 106.314,3.518 L107.112,3.224 C107.130667,3.21466662 107.158666,3.21 107.196,3.21 C107.298667,3.21 107.35,3.27066606 107.35,3.392 L107.35,4.106 C107.592668,3.75133156 107.893665,3.49700077 108.253,3.343 C108.612335,3.18899923 108.992665,3.112 109.394,3.112 C109.907336,3.112 110.369331,3.22633219 110.78,3.455 C111.190669,3.68366781 111.514999,4.02433107 111.753,4.477 C111.991001,4.92966893 112.11,5.47799678 112.11,6.122 L112.11,9.79 C112.11,9.85533366 112.091334,9.90666648 112.054,9.944 C112.016666,9.98133352 111.965334,10 111.9,10 L111.116,10 C111.050666,10 110.999334,9.98133352 110.962,9.944 C110.924666,9.90666648 110.906,9.85533366 110.906,9.79 L110.906,6.164 C110.906,5.57599706 110.749668,5.1186683 110.437,4.792 C110.124332,4.4653317 109.702003,4.302 109.17,4.302 C108.628664,4.302 108.190002,4.46766501 107.854,4.799 C107.517998,5.13033499 107.35,5.58533044 107.35,6.164 L107.35,9.79 C107.35,9.85533366 107.331334,9.90666648 107.294,9.944 C107.256666,9.98133352 107.205334,10 107.14,10 L106.356,10 Z M113.916,2.51 C113.897333,2.51933338 113.869334,2.524 113.832,2.524 C113.729333,2.524 113.678,2.46333394 113.678,2.342 L113.678,1.348 C113.678,1.22666606 113.733999,1.14733352 113.846,1.11 L114.728,0.774 C114.746667,0.76466662 114.774666,0.76 114.812,0.76 C114.914667,0.76 114.966,0.82066606 114.966,0.942 L114.966,1.978 C114.966,2.09000056 114.910001,2.1693331 114.798,2.216 L113.916,2.51 Z M113.93,10 C113.864666,10 113.813334,9.98133352 113.776,9.944 C113.738666,9.90666648 113.72,9.85533366 113.72,9.79 L113.72,3.756 C113.72,3.63466606 113.775999,3.55533352 113.888,3.518 L114.686,3.224 C114.704667,3.21466662 114.732666,3.21 114.77,3.21 C114.872667,3.21 114.924,3.27066606 114.924,3.392 L114.924,9.79 C114.924,9.85533366 114.905334,9.90666648 114.868,9.944 C114.830666,9.98133352 114.779334,10 114.714,10 L113.93,10 Z M119.782,10.168 C119.09133,10.168 118.494003,10.0093349 117.99,9.692 C117.485997,9.37466508 117.098668,8.94533604 116.828,8.404 C116.557332,7.86266396 116.422,7.27000322 116.422,6.626 C116.422,5.93532988 116.578332,5.32166935 116.891,4.785 C117.203668,4.24833065 117.621331,3.83533478 118.144,3.546 C118.666669,3.25666522 119.235997,3.112 119.852,3.112 C120.318669,3.112 120.750331,3.19599916 121.147,3.364 C121.543669,3.53200084 121.849332,3.76066522 122.064,4.05 L122.064,3.756 C122.064,3.63466606 122.119999,3.55533352 122.232,3.518 L123.03,3.224 C123.086,3.20533324 123.118667,3.196 123.128,3.196 C123.221334,3.196 123.268,3.25666606 123.268,3.378 L123.268,9.79 C123.268,9.85533366 123.249334,9.90666648 123.212,9.944 C123.174666,9.98133352 123.123334,10 123.058,10 L122.274,10 C122.208666,10 122.157334,9.98133352 122.12,9.944 C122.082666,9.90666648 122.064,9.85533366 122.064,9.79 L122.064,9.244 C121.858666,9.49600126 121.543669,9.71299909 121.119,9.895 C120.694331,10.0770009 120.248669,10.168 119.782,10.168 Z M119.866,8.978 C120.519337,8.978 121.051331,8.77266872 121.462,8.362 C121.872669,7.95133128 122.078,7.3726704 122.078,6.626 C122.078,5.8793296 121.872669,5.30300203 121.462,4.897 C121.051331,4.49099797 120.519337,4.288 119.866,4.288 C119.240664,4.288 118.715669,4.49333128 118.291,4.904 C117.866331,5.31466872 117.654,5.88866298 117.654,6.626 C117.654,7.36333702 117.866331,7.93966459 118.291,8.355 C118.715669,8.77033541 119.240664,8.978 119.866,8.978 Z" id="omnia" fill="#FF1243"></path>
            <g id="Logo" transform="translate(0.000000, 2.000000)" stroke="#FF1243" stroke-linecap="round" stroke-linejoin="round">
                <path d="M11.5010505,14.0323946 C11.3403919,11.5578896 12.1560444,8.07992142 13.8618254,5.35688088 C16.1748936,1.66439148 19.8748111,-0.5 25,-0.5 L25.5,-0.5 L25.5,-1.04966541e-15 C25.5,10.0701025 20.0593151,14.9048912 11.974951,14.4993722 L11.52992,14.477049 L11.5010505,14.0323946 Z" id="leaf"></path>
                <path d="M19,6 C15.6666667,8.66666667 13.3333333,11.3333333 12,14 C9.33333333,18 11.6666667,26 19,38" id="stem"></path>
                <path d="M14,28 C19.6666667,32 25.3333333,33.4166667 31,32.25" id="root-1"></path>
                <path d="M16,33 C12,36.3333333 8,37.3333333 4,36" id="root-2"></path>
                <path d="M12,24 C11,28 8,32 0,33" id="root-3"></path>
            </g>
        </g>
    </g>
</svg>