<?xml version="1.0" encoding="UTF-8"?>
<svg width="48px" height="48px" viewBox="0 0 48 48" version="1.1" xmlns="http://www.w3.org/2000/svg" xmlns:xlink="http://www.w3.org/1999/xlink">
    <!-- Generator: Sketch 46.2 (44496) - http://www.bohemiancoding.com/sketch -->
    <title>Logo energy red</title>
    <desc>Created with Sketch.</desc>
    <defs></defs>
    <g id="Page-1" stroke="none" stroke-width="1" fill="none" fill-rule="evenodd" stroke-linecap="round" stroke-linejoin="round">
        <g id="Logo-energy-red" stroke="#FF1243">
            <path d="M19.5010505,19.0323946 C19.3403919,16.5578896 20.1560444,13.0799214 21.8618254,10.3568809 C24.1748936,6.66439148 27.8748111,4.5 33,4.5 L33.5,4.5 L33.5,5 C33.5,15.0701025 28.0593151,19.9048912 19.974951,19.4993722 L19.52992,19.477049 L19.5010505,19.0323946 Z" id="leaf"></path>
            <path d="M27,11 C23.6666667,13.6666667 21.3333333,16.3333333 20,19 C17.3333333,23 19.6666667,31 27,43" id="stem"></path>
            <path d="M22,33 C27.6666667,37 33.3333333,38.4166667 39,37.25" id="root-1"></path>
            <path d="M24,38 C20,41.3333333 16,42.3333333 12,41" id="root-2"></path>
            <path d="M20,29 C19,33 16,37 8,38" id="root-3"></path>
        </g>
    </g>
</svg>