<?xml version="1.0" standalone="no"?>
<!DOCTYPE svg PUBLIC "-//W3C//DTD SVG 20010904//EN"
 "http://www.w3.org/TR/2001/REC-SVG-20010904/DTD/svg10.dtd">
<svg version="1.0" xmlns="http://www.w3.org/2000/svg"
 width="700.000000pt" height="700.000000pt" viewBox="0 0 700.000000 700.000000"
 preserveAspectRatio="xMidYMid meet">
<metadata>
Created by potrace 1.11, written by Peter Selinger 2001-2013
</metadata>
<g transform="translate(0.000000,700.000000) scale(0.100000,-0.100000)"
fill="#000000" stroke="none">
<path d="M4697 6414 c-1 -1 -49 -5 -107 -9 -57 -4 -107 -8 -110 -10 -3 -2 -29
-6 -58 -10 -84 -9 -289 -64 -398 -106 -515 -199 -898 -611 -1107 -1189 -53
-148 -79 -239 -106 -375 -31 -157 -33 -178 -36 -395 -2 -158 -7 -217 -19 -254
-60 -176 -80 -424 -52 -651 8 -71 18 -141 21 -155 3 -14 12 -59 20 -100 8 -41
31 -133 51 -205 20 -71 39 -142 41 -156 7 -39 -41 -187 -101 -315 -178 -374
-485 -639 -931 -802 -110 -40 -399 -115 -485 -126 -25 -4 -57 -8 -72 -11 -16
-3 -40 -7 -55 -9 -70 -9 -101 -40 -94 -91 7 -46 45 -65 105 -54 23 4 65 10 95
14 30 4 61 8 70 10 700 142 1111 386 1410 839 29 43 133 252 143 284 2 8 24
-40 50 -105 78 -197 186 -435 319 -699 l126 -250 -81 -61 c-284 -212 -551
-337 -831 -389 -100 -18 -347 -27 -416 -14 -24 4 -65 11 -90 14 -25 3 -79 15
-120 27 -119 32 -150 34 -177 9 -12 -11 -22 -28 -22 -38 1 -60 24 -77 153
-111 288 -75 567 -73 857 6 220 60 497 201 708 360 81 61 102 72 102 55 0 -24
363 -639 392 -664 61 -53 148 29 104 97 -19 29 -227 380 -261 440 -152 269
-425 789 -425 809 0 3 63 -34 141 -81 484 -293 944 -449 1469 -499 49 -5 357
-4 400 0 19 2 67 7 105 11 108 10 258 35 297 50 22 9 41 58 33 85 -16 51 -60
57 -195 30 -175 -37 -607 -46 -755 -16 -11 2 -42 7 -70 10 -27 4 -84 13 -125
21 -41 9 -85 17 -98 20 -93 17 -312 88 -472 153 -197 79 -605 299 -680 367 -9
8 -22 15 -28 15 -7 0 -12 4 -12 8 0 5 -27 22 -59 38 l-60 29 -46 108 c-139
328 -252 693 -291 941 -3 21 -7 48 -10 60 -7 35 -17 197 -17 266 0 109 12 210
37 307 36 143 20 133 231 138 99 2 198 6 220 10 238 38 295 51 428 96 495 169
859 540 1049 1069 11 30 21 62 23 70 2 8 13 46 24 85 68 229 104 511 105 817
1 130 0 139 -22 160 -20 21 -32 23 -128 23 -57 1 -106 0 -107 -1z m109 -286
c-5 -134 -8 -175 -21 -288 -11 -95 -16 -127 -25 -175 -6 -27 -12 -60 -14 -72
-25 -131 -104 -359 -168 -487 -35 -69 -123 -218 -149 -250 -125 -157 -234
-261 -369 -352 -159 -106 -381 -199 -545 -228 -146 -27 -214 -36 -300 -42
-118 -7 -98 -7 -163 -5 l-53 1 32 58 c78 138 180 282 306 434 71 86 293 313
378 388 22 19 60 53 85 75 25 22 68 58 95 80 113 91 134 127 97 171 -37 45
-73 39 -155 -29 -29 -23 -54 -44 -57 -47 -3 -3 -21 -18 -40 -34 -143 -117
-404 -377 -537 -536 -60 -71 -181 -237 -228 -313 -27 -43 -54 -81 -59 -84 -5
-4 -7 -2 -4 3 3 5 9 46 12 92 4 46 9 89 11 95 2 7 7 30 10 52 19 136 109 427
178 575 101 217 212 381 362 538 186 194 392 326 652 416 114 39 301 81 408
91 39 4 71 8 72 8 1 1 45 3 98 5 l97 3 -6 -143z"/>
</g>
</svg>
