<?xml version="1.0" encoding="UTF-8"?>
<svg width="80px" height="80px" viewBox="0 0 80 80" version="1.1" xmlns="http://www.w3.org/2000/svg" xmlns:xlink="http://www.w3.org/1999/xlink">
    <g id="Page-1" stroke="none" stroke-width="1" fill="none" fill-rule="evenodd">
        <g id="potted-plant" transform="translate(18.000000, 0.000000)" fill-rule="nonzero" fill="currentColor">
            <path d="M43.5527344,21.4882812 C43.5527344,18.5740966 41.5856323,16.0009155 38.4820557,14.6976318 C38.8146973,13.8775024 39.0370484,13.0290527 39.1347657,12.1738281 C39.4013673,9.8398437 38.7285157,7.7353515 37.2402345,6.2470703 C35.7519533,4.7587891 33.6503907,4.0859375 31.3134767,4.3520508 C30.4307863,4.4528809 29.5561525,4.689148 28.711609,5.0397949 C27.404541,1.9544067 24.8374023,0 21.9326172,0 C19.0151978,0 16.4401245,1.9721069 15.1387329,5.0813599 C12.0892334,3.8510743 8.7961426,4.2084961 6.6923828,6.3129883 C5.2041016,7.8007813 4.5302734,9.9057617 4.796875,12.2397461 C4.8977051,13.1224976 5.1340942,13.9972534 5.4849243,14.8418579 C2.3995972,16.1492309 0.4453125,18.7162475 0.4453125,21.6201172 C0.4453125,24.5375366 2.4170532,27.1126709 5.5266724,28.4144287 C4.2962036,31.4644775 4.65448,34.7575073 6.7578125,36.8608398 C8.0332031,38.1362304 9.7607422,38.8129882 11.6982422,38.8125 C12.0214844,38.8125 12.350586,38.7939453 12.6845703,38.7558594 C13.5672607,38.6550293 14.4418945,38.4187622 15.286438,38.0680542 C16.4371948,40.7846069 18.5640869,42.6150513 21.0410156,43.013855 L21.0410156,49.5014649 L4.3935547,49.5014649 C3.8408203,49.5014649 3.3935547,49.9492188 3.3935547,50.5014649 L3.3935547,57.9916993 C3.3935547,58.5439454 3.8408203,58.9916993 4.3935547,58.9916993 L5.5795288,58.9916993 L7.4775391,79.0942384 C7.5253906,79.6074219 7.9570312,80 8.4726562,80 L35.6083984,80 C36.1240234,80 36.555664,79.6074219 36.6035156,79.0942383 L38.5015259,58.9916992 L39.6875,58.9916992 C40.2402344,58.9916992 40.6875,58.5439453 40.6875,57.9916992 L40.6875,50.5014648 C40.6875,49.9492187 40.2402344,49.5014648 39.6875,49.5014648 L23.0410156,49.5014648 L23.0410156,43.0181274 C25.5518799,42.6329345 27.7070923,40.7814331 28.8604736,38.0234985 C30.0169067,38.4899292 31.2070923,38.7363281 32.3554687,38.7363281 C34.2353515,38.7363281 35.9999999,38.1005859 37.305664,36.7949219 C39.427124,34.6734619 39.7719726,31.341919 38.5033569,28.2698365 C41.5941772,26.9637451 43.5527344,24.3951416 43.5527344,21.4882812 Z M34.6982422,78 L9.3828125,78 L7.5875854,58.9916992 L36.4934692,58.9916992 L34.6982422,78 Z M38.6875,56.9916992 L5.3935547,56.9916992 L5.3935547,51.5014648 L38.6875,51.5014648 L38.6875,56.9916992 Z M36.4595947,34.6676025 L27.3692016,25.5767822 C27.8813476,24.8946533 28.2653808,24.1141357 28.4891967,23.2668457 C31.2938232,23.9270019 33.5238647,24.9310913 34.6689452,26.0761719 C37.2866821,28.6939087 37.9819336,32.3416748 36.4595947,34.6676025 Z M21.9990234,26.2749023 C19.3964843,26.2749023 17.2783203,24.1572265 17.2783203,21.5541992 C17.2783203,18.9516601 19.3964844,16.8339844 21.9990234,16.8339844 C24.6015624,16.8339844 26.71875,18.9516602 26.71875,21.5541992 C26.71875,24.1572266 24.6015625,26.2749023 21.9990234,26.2749023 Z M7.4979248,34.5744019 C6.1108398,32.2437134 6.8378296,28.7001954 9.3955078,26.1420899 C10.5358887,25.0021363 12.7437744,24.0026246 15.5273437,23.3424073 C15.7452392,24.1297608 16.1020507,24.8576661 16.5714111,25.5012818 L7.4979248,34.5744019 Z M6.7841797,12.0126953 C6.628479,10.6521606 6.8981323,9.4176636 7.5370484,8.4403076 L16.628357,17.5311889 C16.1160889,18.2132568 15.7318726,18.9938354 15.5079346,19.8411865 C12.7034912,19.1809082 10.4742432,18.1764526 9.3291016,17.0317383 C7.8935547,15.5961914 6.9892578,13.8134766 6.7841797,12.0126953 Z M27.4260254,17.6077271 L36.5025025,8.5321045 C37.0673829,9.4827881 37.2946778,10.6604004 37.147461,11.9467774 C36.9423829,13.7475586 36.038086,15.5302735 34.6025391,16.9658204 C33.4620362,18.1058961 31.2537232,19.1052247 28.4696656,19.7656861 C28.2518311,18.9787598 27.8951416,18.2510376 27.4260254,17.6077271 Z M31.5400391,6.3393555 C32.9022828,6.1812744 34.1364746,6.4525757 35.1140137,7.0924683 L26.0216675,16.18396 C25.3397217,15.6716919 24.5592041,15.2875977 23.7119751,15.0636597 C24.3721313,12.258545 25.3772583,10.0280762 26.5214844,8.8842774 C27.9570312,7.4487305 29.7392578,6.5449219 31.5400391,6.3393555 Z M21.9326172,2 C24.0629273,2 25.9682617,3.5509644 26.9400635,5.986145 C26.2924805,6.4111328 25.6745606,6.9025879 25.1074219,7.4697265 C23.4879761,9.0884399 22.5133667,11.7467651 21.9571533,13.8353881 C21.4007568,11.7712402 20.4295044,9.1408691 18.8251953,7.5361327 C18.2305298,6.9414061 17.5867309,6.4374389 16.9177246,6.0078734 C17.887146,3.5599365 19.7964478,2 21.9326172,2 Z M17.4111328,8.9501953 C18.5467529,10.0858154 19.5480957,12.3009033 20.2084961,15.0835571 C19.4221191,15.3014526 18.6949463,15.65802 18.052063,16.126831 L8.9781494,7.0532836 C11.3085327,5.6653442 14.852356,6.3927612 17.4111328,8.9501953 Z M2.4453125,21.6201172 C2.4453125,19.4902344 3.9959106,17.5845337 6.4307251,16.6122437 C6.855896,17.2601319 7.3475952,17.878357 7.9150391,18.4458008 C9.5305176,20.0612793 12.1800537,21.036499 14.2734986,21.5947876 C12.1812745,22.1586304 9.5773926,23.1324463 7.9814454,24.7280273 C7.3865357,25.3228149 6.8825684,25.9667358 6.453003,26.6357421 C4.0055542,25.6662598 2.4453125,23.7564697 2.4453125,21.6201172 Z M12.4580078,36.7685547 C11.095581,36.9230957 9.8616333,36.6538696 8.8848266,36.015625 L17.9758911,26.9249268 C18.6578979,27.4371949 19.4384765,27.8212891 20.2858276,28.0452271 C19.6265258,30.8492432 18.6217041,33.078064 17.4765625,34.2236329 C16.0410156,35.6591797 14.2587891,36.5629883 12.4580078,36.7685547 Z M22.0644531,41.1079102 C19.9349975,41.1079102 18.0298462,39.5568848 17.0579834,37.1216431 C17.7055664,36.6965943 18.3234863,36.2050171 18.890625,35.6376953 C20.5066528,34.0216675 21.4815063,31.3726196 22.0397949,29.2798462 C22.6039428,31.3724365 23.5783691,33.9765625 25.1728515,35.5717774 C25.7677001,36.166626 26.411621,36.6699219 27.0805663,37.0994263 C26.111145,39.5476685 24.2017212,41.1079102 22.0644531,41.1079102 Z M26.5869141,34.1577148 C25.4473877,33.0177612 24.4476929,30.8097534 23.7872315,28.0257568 C24.5744019,27.8078003 25.3023682,27.4508667 25.9458008,26.9815063 L35.0188599,36.0549926 C32.6882935,37.4416504 29.1444092,36.71521 26.5869141,34.1577148 Z M37.5639038,26.4969482 C37.144165,25.854309 36.65625,25.2352294 36.0830078,24.6621093 C34.4661255,23.0455932 31.81604,22.0708007 29.7246094,21.5131225 C31.8173218,20.9492187 34.4212647,19.9752197 36.0166016,18.3798828 C36.6052857,17.7911987 37.1139527,17.1484985 37.5492554,16.4737549 C39.9943848,17.4436646 41.5527344,19.3527222 41.5527344,21.4882813 C41.5527344,23.6187134 40.0006714,25.5250854 37.5639038,26.4969482 Z" id="Shape"></path>
        </g>
    </g>
</svg>