<svg width="80px" height="80px" viewBox="0 0 80 80" version="1.1" xmlns="http://www.w3.org/2000/svg" xmlns:xlink="http://www.w3.org/1999/xlink">
    <g id="Page-1" stroke="none" stroke-width="1" fill="none" fill-rule="evenodd">
        <g id="trees" fill-rule="nonzero" fill="currentColor">
            <path d="M0.9995117,77.4213867 C1.074707,77.4213867 1.1513672,77.4130859 1.2280273,77.3950195 C1.3968505,77.3558349 10.1383667,75.3699951 24.5180664,74.4512939 L24.5180664,78.5532226 C24.5180664,79.1054687 24.9658203,79.5532226 25.5180664,79.5532226 C26.0703125,79.5532226 26.5180664,79.1054687 26.5180664,78.5532226 L26.5180664,74.3306274 C33.1968994,73.965332 40.9924927,73.8488769 49.6298828,74.2420044 L49.6298828,78.3325195 C49.6298828,78.8847656 50.0776367,79.3325195 50.6298828,79.3325195 C51.1821289,79.3325195 51.6298828,78.8847656 51.6298828,78.3325195 L51.6298828,74.3354492 C60.015564,74.7890014 69.1582031,75.7330322 78.8295898,77.4067383 C79.3735351,77.4995117 79.8916015,77.1362305 79.9853515,76.5917969 C80.0795898,76.0478516 79.7148437,75.5302735 79.1704101,75.4360352 C69.3776245,73.7411499 60.1201782,72.7890015 51.6298828,72.3343506 L51.6298828,55.3208618 C62.4347534,54.7937622 71.0698242,45.8521118 71.0698242,34.9042969 C71.0698242,29.9057617 69.2646484,25.1303711 65.9736328,21.3886719 C66.5424805,19.7055664 66.8305664,17.9707031 66.8305664,16.222168 C66.8305664,7.2773438 59.5629883,0 50.6303711,0 C41.6972656,0 34.4296875,7.2773438 34.4296875,16.222168 C34.4296875,17.9697266 34.7177734,19.7045899 35.2866211,21.3886719 C34.3540649,22.4499512 33.5420532,23.6062012 32.8482666,24.8308716 C30.6189575,23.7879028 28.1403809,23.1875 25.5175781,23.1875 C15.9824219,23.1875 8.2250976,30.8974609 8.2250976,40.3740234 C8.2250976,49.5152588 15.4488525,56.9910888 24.5180664,57.5101928 L24.5180664,72.4503173 C9.8649902,73.3780517 0.9426269,75.4078979 0.7714844,75.4477538 C0.2338867,75.5737304 -0.0996094,76.1118163 0.0263672,76.649414 C0.1342773,77.1103516 0.5454102,77.4213867 0.9995117,77.4213867 Z M37.1611328,22.2978516 C37.4213867,22.0195313 37.5004883,21.6171875 37.3652344,21.2612305 C36.7446289,19.6235352 36.4296875,17.9282227 36.4296875,16.222168 C36.4296875,8.3798828 42.800293,2 50.6303711,2 C58.4604492,2 64.8305664,8.3798828 64.8305664,16.222168 C64.8305664,17.9296875 64.515625,19.625 63.8950195,21.2612305 C63.7597656,21.6171875 63.8388672,22.0195313 64.0991211,22.2983399 C67.3046875,25.7319337 69.0698242,30.2089844 69.0698242,34.9042969 C69.0698242,44.7495117 61.331604,52.7960816 51.6298828,53.3208618 L51.6298828,48.2231445 L56.3813476,43.4711914 C56.7719726,43.0805664 56.7719726,42.4477539 56.3813476,42.0571289 C55.9907226,41.6665039 55.3579101,41.6665039 54.9672851,42.0571289 L51.6298828,45.3948975 L51.6298828,39.272461 L56.3813476,34.5209962 C56.7719726,34.1303712 56.7719726,33.4975587 56.3813476,33.1069337 C55.9907226,32.7163087 55.3579101,32.7163087 54.9672851,33.1069337 L51.6298828,36.444336 L51.6298828,30.75 C51.6298828,30.1977539 51.1821289,29.75 50.6298828,29.75 C50.0776367,29.75 49.6298828,30.1977539 49.6298828,30.75 L49.6298828,36.4434814 L46.2929687,33.1069335 C45.9023437,32.7163085 45.2695312,32.7163085 44.8789062,33.1069335 C44.4882812,33.4975585 44.4882812,34.130371 44.8789062,34.520996 L49.6298828,39.2714843 L49.6298828,45.3940429 L46.2929687,42.0571288 C45.9023437,41.6665038 45.2695312,41.6665038 44.8789062,42.0571288 C44.4882812,42.4477538 44.4882812,43.0805663 44.8789062,43.4711913 L49.6298828,48.2221679 L49.6298828,53.3312377 C46.100647,53.1444091 42.767456,51.9715575 39.8967285,49.904663 C41.734375,47.1749877 42.8100586,43.897705 42.8100586,40.3740234 C42.8100586,34.2144775 39.5220337,28.8171386 34.6094971,25.7822876 C35.3227539,24.5303955 36.1727905,23.3574829 37.1611328,22.2978516 Z M10.2250977,40.3740234 C10.2250977,32 17.0854492,25.1875 25.5175781,25.1875 C33.949707,25.1875 40.8100586,32 40.8100586,40.3740234 C40.8100586,48.4126587 34.4834595,54.9945068 26.5180664,55.5101928 L26.5180664,50.0063476 L31.269043,45.255371 C31.659668,44.864746 31.659668,44.2319335 31.269043,43.8413085 C30.878418,43.4506835 30.2456055,43.4506835 29.8549805,43.8413085 L26.5180664,47.1782226 L26.5180664,41.380371 C26.5180664,40.8281249 26.0703125,40.380371 25.5180664,40.380371 C24.9658203,40.380371 24.5180664,40.8281249 24.5180664,41.380371 L24.5180664,47.1783446 L21.1806641,43.8413085 C20.7900391,43.4506835 20.1572266,43.4506835 19.7666016,43.8413085 C19.3759766,44.2319335 19.3759766,44.864746 19.7666016,45.255371 L24.5180664,50.0063476 L24.5180664,55.5102538 C16.5521851,54.9949951 10.2250977,48.4130249 10.2250977,40.3740234 Z M26.5180664,57.5101318 C31.3810425,57.2315063 35.7095947,54.9611206 38.680542,51.4921875 C41.9038086,53.8273926 45.6569824,55.1416016 49.6298828,55.3312378 L49.6298828,72.241333 C41.0045776,71.8527222 33.2127075,71.9682007 26.5180664,72.3312378 L26.5180664,57.5101318 L26.5180664,57.5101318 Z" id="Shape"></path>
        </g>
    </g>
</svg>