<svg viewBox="0 0 84 62" version="1.1" xmlns="http://www.w3.org/2000/svg" xmlns:xlink="http://www.w3.org/1999/xlink">
    <g id="Page-1" stroke="none" stroke-width="1" fill="none" fill-rule="evenodd">
        <g id="Group" fill-rule="nonzero" fill="currentColor">
            <path d="M82.45,34.16 C81.6421793,33.8247383 80.7116423,34.0148054 80.1,34.64 C79.6534494,35.2406583 79.2395186,35.8648927 78.86,36.51 L78.51,37.06 L78.44,37.17 C78.26,37.45 78.09,37.76 77.92,38.06 C77.6756768,38.5312186 77.3659435,38.9655184 77,39.35 L76.92,39.42 C75.57,40.68 74.1,41.79 72.66,42.96 L72.66,42.96 C72.4837794,43.0507324 72.2950502,43.1147656 72.1,43.15 C72.1,42.92 72.1,42.65 72.16,42.47 L72.39,42.06 C72.73,41.45 73.1,40.85 73.46,40.25 C74.4224093,38.6126468 75.1877281,36.8671827 75.74,35.05 C75.74,34.91 75.83,34.78 75.86,34.64 C76.01,34.17 76.14,33.7 76.25,33.22 C76.36,32.74 76.43,32.22 76.52,31.79 C76.5286147,31.1071348 76.6537455,30.4307519 76.89,29.79 C77.02,29.57 77.15,29.36 77.29,29.15 C77.43,28.94 77.47,28.89 77.56,28.76 L78.06,28.07 C78.38,27.65 78.72,27.24 79.06,26.83 C79.4030281,26.3873455 79.5510572,25.8241128 79.47,25.27 C79.47,25.2 79.34,25.06 79.28,25.07 C79.1628537,25.0736344 79.0531953,25.1284636 78.98,25.22 C78.8990393,25.3607264 78.851164,25.5180311 78.84,25.68 C78.8002805,26.2463614 78.486743,26.757726 78,27.05 L78,27.05 L77.39,27.5 L77.22,27.64 C76.9071943,27.8809871 76.609935,28.1415066 76.33,28.42 C75.9523543,28.7845645 75.6169124,29.1904493 75.33,29.63 C74.65,30.63 74.19,31.84 73.61,32.93 L73.43,33.28 C72.9,34.28 72.43,35.42 72,36.51 L71.77,37.03 C71.5983722,37.5130903 71.3807045,37.9785643 71.12,38.42 C70.96,38.64 70.57,38.69 70.28,38.82 C70.2532874,38.5816881 70.2736738,38.3404495 70.34,38.11 C70.48,37.79 70.55,37.52 70.16,37.43 L70.05,37.43 C69.8227455,37.3928156 69.5896213,37.4352019 69.39,37.55 L69.23,37.66 C68.6656241,38.0049322 68.1621671,38.4408111 67.74,38.95 C66.13,41.14 64.3,43.13 62.53,45.18 C61.7858777,46.1038662 61.3209918,47.2209801 61.19,48.4 C61.12,48.88 61.26,49.51 60.58,49.8 C59.52,50.24 58.51,50.8 57.46,51.23 C55.54,52.07 53.62,52.88 51.68,53.67 C51.45,53.76 51.13,53.67 50.85,53.59 C50.95,53.34 51.04,53.08 51.14,52.82 C51.1563978,52.8157661 51.1736022,52.8157661 51.19,52.82 C52.45,51.51 53.72,50.21 54.98,48.89 C55.1664774,48.6543904 55.3273814,48.3996257 55.46,48.13 C55.75,47.57 56.02,47 56.29,46.43 C56.6773658,45.7436002 56.9859875,45.0156555 57.21,44.26 C57.3321768,43.566243 57.550971,42.89303 57.86,42.26 C58.0207935,41.8777802 58.1609944,41.4872205 58.28,41.09 C58.4013769,40.8394601 58.5524631,40.6044371 58.73,40.39 C59.0773677,40.0667582 59.3860947,39.7043394 59.65,39.31 C60.0815821,38.0928481 60.680677,36.941778 61.43,35.89 C61.5021539,35.7923109 61.559442,35.6844744 61.6,35.57 C62.0101022,34.6260785 62.5125472,33.7250271 63.1,32.88 C63.18,32.79 63.24,32.7 63.31,32.61 C63.9747475,31.8081346 64.1891923,30.7246243 63.88,29.73 C63.7327674,29.3996035 63.5142027,29.1059071 63.24,28.87 L63.13,28.75 C62.93,28.97 62.73,29.19 62.54,29.42 C62.4707986,29.5161607 62.4073542,29.6163361 62.35,29.72 C61.84,30.45 61.26,31.14 60.83,31.91 C60.06,33.27 59.39,34.69 58.64,36.06 C58.4363465,36.4021877 58.1639446,36.6984248 57.84,36.93 C56.5869919,37.7675198 55.2149171,38.4114173 53.77,38.84 C53.56,38.92 53.18,38.93 53.09,38.84 C52.9591726,38.5801656 52.9271891,38.2816528 53,38 C53.12,37.13 53.24,36.27 53.41,35.42 C53.531881,34.6089931 53.7328388,33.8118606 54.01,33.04 C54.44,32.04 55.01,31.04 55.52,30.04 C55.71,29.62 56.05,29.55 56.3,29.73 C56.71,30.04 57.07,29.83 57.44,29.78 C57.81,29.73 58.27,29.52 58.7,29.43 C60.413673,28.9687507 61.9475967,27.9995899 63.1,26.65 L63.19,26.55 C63.6517106,26.0186789 64.0540901,25.4385818 64.39,24.82 C64.61,24.46 64.82,24.1 65.05,23.75 C65.74,22.75 66.42,21.68 67.11,20.64 C67.54,19.99 68.02,19.36 68.41,18.64 C68.71,18.13 68.54,17.8 67.99,17.64 C67.44,17.48 67.29,17.18 67.6,16.64 C67.8730019,16.2238513 68.1041293,15.7816946 68.29,15.32 C68.93,13.65 69.54,11.96 70.15,10.32 C70.21,10.15 70.27,9.97 70.32,9.8 C70.32,9.8 70.32,9.8 70.32,9.8 C70.44,9.41 70.56,9.02 70.67,8.63 C70.6890556,8.49064842 70.6890556,8.34935158 70.67,8.21 C70.5503145,8.29158974 70.445469,8.3930532 70.36,8.51 C70.3003927,8.62241952 70.2264412,8.72662389 70.14,8.82 C69.95,9.02 69.78,8.96 69.46,8.67 C69.14,8.38 68.64,8.01 68.21,7.67 C68.1029874,7.61647055 67.9770126,7.61647055 67.87,7.67 C67.323884,8.2471017 66.8318249,8.87305451 66.4,9.54 C66.1479398,10.1471454 65.9667427,10.7813353 65.86,11.43 C65.5428964,12.7175102 65.0587924,13.9580269 64.42,15.12 C64.29,15.34 64.15,15.56 63.99,15.78 C63.706227,16.1184367 63.5781298,16.5607472 63.6371249,16.9984527 C63.69612,17.4361583 63.9367502,17.8287707 64.3,18.08 L64.41,18.17 C65.34,18.94 65.34,18.99 64.57,20.04 L64.41,20.25 C64,20.81 63.57,21.36 63.16,21.91 C62.55,22.69 61.95,23.48 61.37,24.28 C60.7283631,25.2027169 59.7593253,25.8463583 58.66,26.08 C58.2463843,26.1492582 57.8385664,26.2495413 57.44,26.38 C56.9,26.59 56.79,26.32 56.77,25.88 C56.8089829,25.5478064 56.8089829,25.2121936 56.77,24.88 C56.5351277,23.7213145 56.7688454,22.5167698 57.42,21.53 C57.81,20.77 58.31,20.07 58.71,19.31 C58.91,18.95 58.91,18.47 59.15,18.16 C59.5304904,17.6393668 59.7714633,17.0300499 59.85,16.39 C59.99,15.5 60.31,14.75 61.32,14.55 C61.5721911,14.5054651 61.7976852,14.3658735 61.95,14.16 C62.0985685,13.9105584 62.2002426,13.6360382 62.25,13.35 C62.25,13.22 62.32,13.08 62.37,12.96 C62.3950065,12.9095979 62.3950065,12.8504021 62.37,12.8 C62.2082015,12.5966274 62.0345677,12.4029589 61.85,12.22 L61.85,12.22 C61.73,12.07 61.59,11.95 61.48,11.79 C60.93,11.01 60.66,10.96 59.83,11.47 C59.3158161,11.8601789 58.8372724,12.2952185 58.4,12.77 C58.2551945,12.8737985 58.1012234,12.9641728 57.94,13.04 C57.8921932,12.867436 57.8686339,12.6890585 57.87,12.51 C57.87,12.04 58.01,11.57 58.01,11.1 C58.01,10.63 57.91,9.9 57.9,9.3 C57.9316545,8.54153453 57.6237382,7.80840052 57.06,7.3 C56.42,6.75 55.81,6.84 55.6,7.65 C55.39,8.46 55.33,9.08 55.2,9.79 C55.03,10.79 54.89,11.79 54.67,12.79 C54.61,13.06 54.46,13.61 53.91,13.18 C53.7542695,13.094614 53.5657305,13.094614 53.41,13.18 C52.7426116,13.6830028 52.249531,14.3824078 52,15.18 C51.89,15.64 51.74,16.1 51.59,16.55 C51.14,17.81 50.7,19.08 50.19,20.32 C50.0108524,20.7315919 49.7366909,21.0948559 49.39,21.38 C49.3,21.46 48.92,21.21 48.67,21.13 C48.5112599,21.10729 48.3542357,21.0738806 48.2,21.03 C47.74,20.79 47.66,21.03 47.64,21.42 C47.62,21.81 47.56,21.98 47.54,22.27 C47.48,22.87 47.4,23.47 47.4,24.07 C47.4,24.67 47.54,25.54 47.51,26.27 C47.51,27.27 47.37,28.27 47.26,29.27 C47.15,30.27 47,31.09 46.9,32 C46.7511991,33.2926441 46.9264671,34.601999 47.41,35.81 C47.66,36.41 48.16,36.49 48.41,36.01 C48.7618007,35.2361599 49.2495195,34.5316772 49.85,33.93 C50.5411687,32.9928578 50.941131,31.8729635 51,30.71 C51.2288369,29.960239 51.1899515,29.1542493 50.89,28.43 C50.82,28.3 50.95,28.04 51.02,27.86 C51.2920695,27.3129297 51.5357268,26.7521841 51.75,26.18 C52.09,25.06 52.37,23.92 52.66,22.78 C52.95,21.64 53.18,20.69 53.47,19.65 C53.76,18.61 54.04,17.76 54.33,16.82 C54.49,16.3 54.87,16.08 55.1,16.39 C55.6064064,16.8483194 55.8278463,17.5431825 55.68,18.21 C55.542972,18.5998261 55.6025581,19.031825 55.84,19.37 C56.009293,19.7333967 56.0979872,20.1291095 56.1,20.53 C56.1,20.81 55.98,21.1 56,21.37 C56.0293528,21.9487652 55.8238236,22.5148721 55.43,22.94 C55.3057696,23.0707702 55.2013312,23.2190053 55.12,23.38 C54.7,24.59 54.32,25.82 53.89,27.03 C53.39,28.46 53.18,29.96 52.71,31.4 C52.3669653,32.8689872 51.9225679,34.3124432 51.38,35.72 C51.09,36.31 50.77,36.88 50.5,37.47 C50.01,38.57 49.59,39.7 49.07,40.78 C48.4033333,42.1866667 47.6766667,43.57 46.89,44.93 C46.46,45.7 45.89,46.4 45.43,47.15 C45.13,47.63 44.87,48.15 44.57,48.64 C44.5010069,48.7354881 44.387501,48.7884575 44.27,48.78 C44.1675825,48.7186533 44.1034986,48.6093337 44.1,48.49 C44.0965138,48.3296698 44.1236664,48.1701481 44.18,48.02 C44.36,47.19 44.57,46.38 44.72,45.55 C44.95,44.32 45.15,43.08 45.36,41.85 C45.3749843,41.6736511 45.3749843,41.4963489 45.36,41.32 C45.2244924,41.4305266 45.1005266,41.5544924 44.99,41.69 C44.71,42.02 44.45,42.23 44.06,41.82 C43.99,41.74 43.86,41.71 43.76,41.64 C42.88,41.06 42.86,41.08 42.28,41.88 C42.1064849,42.0368884 41.9067914,42.1621199 41.69,42.25 C41.6606474,42.0343275 41.6606474,41.8156725 41.69,41.6 C41.79,41.24 42.07,40.9 42.07,40.55 C42.07,39.22 42.78,38.1 43.07,36.87 C43.25,36.12 43.36,35.36 43.48,34.61 C43.48,34.54 43.34,34.38 43.27,34.38 C42.82,34.38 42.68,34.17 42.78,33.69 C42.9394682,33.0332523 43.0431703,32.3642067 43.09,31.69 C43.14,30.51 43.09,29.33 43.09,28.15 C43.09,27.92 43.09,27.68 43.09,27.45 C43.18,25.76 43.34,24.09 43.32,22.45 C43.32,20.94 43.06,19.45 42.97,17.93 C42.88,16.41 42.97,15.02 42.82,13.57 C42.682116,12.3655407 42.4582108,11.1724933 42.15,10 C41.6833333,8 41.1666667,6.01666667 40.6,4.05 C40.4526322,3.4040179 40.1021679,2.82224713 39.6,2.39 C39.06,1.95 38.19,1.66 38.25,0.66 C38.2474534,0.493751124 38.1343237,0.349618354 37.9734395,0.307648574 C37.8125553,0.265678794 37.6434339,0.336180818 37.56,0.48 C37.3203879,0.747542525 37.1367781,1.06035927 37.02,1.4 C36.8496557,2.08515792 36.7194344,2.77967149 36.63,3.48 C36.5066371,3.93594544 36.4760328,4.41201191 36.54,4.88 C36.89,6.18 37.41,7.43 37.76,8.72 C38.24,10.49 38.64,12.29 39.04,14.08 C39.1287494,14.5682865 39.1722671,15.0637188 39.17,15.56 C39.140211,15.715684 39.0826251,15.8647299 39,16 C38.8383645,15.9156004 38.6900949,15.8077679 38.56,15.68 C38.24,15.22 37.95,14.75 37.65,14.27 C36.9066058,13.0940434 35.9582471,12.0610098 34.85,11.22 C34.6980536,11.1146433 34.5143037,11.0651722 34.33,11.08 C34.0222636,11.1593354 33.7213168,11.2629949 33.43,11.39 C33.2137239,11.4834796 33.0452719,11.6615992 32.9639943,11.88275 C32.8827166,12.1039009 32.895732,12.3487136 33,12.56 C33.2675098,13.2179906 33.5678879,13.8621348 33.9,14.49 C35.02,16.42 36.17,18.33 37.29,20.26 C37.82,21.17 38.29,22.1 38.84,23.01 C39.05,23.36 39.51,23.62 39.57,24.01 C39.6949098,24.8371447 39.7451123,25.673854 39.72,26.51 C39.72,27.28 39.63,28.05 39.61,28.83 C39.59,29.61 39.61,30.55 39.61,31.41 C39.5584558,31.6422658 39.4707181,31.8649846 39.35,32.07 C39.19,31.89 38.97,31.73 38.9,31.52 C38.8099731,31.1941881 38.762908,30.8580086 38.76,30.52 C38.76,29.86 38.76,29.2 38.76,28.52 C38.8229801,28.024586 38.686258,27.5244712 38.38,27.13 C37.9257978,26.5430236 37.5083342,25.9285172 37.13,25.29 C37,25.1 36.82,24.84 36.65,24.82 C35.91,24.74 34.9,26.13 35.1,26.82 C35.1550829,27.0297777 35.1550829,27.2502223 35.1,27.46 C34.7451192,28.2438452 34.8992107,29.164443 35.49,29.79 C35.7411408,30.1256388 35.8966502,30.5230516 35.94,30.94 C36.1,31.71 36.21,32.49 36.33,33.27 C36.51,34.43 36.68,35.6 36.85,36.77 C36.94,37.41 37.04,38.06 37.09,38.71 C37.0698484,38.9270591 37.0158623,39.1396293 36.93,39.34 C36.76,39.24 36.61,39.12 36.44,39.03 C36.27,38.94 36.01,38.72 35.8,38.75 C35.59,38.78 35.45,39.01 35.31,39.19 C35.1371749,39.4596635 34.9502486,39.7200251 34.75,39.97 C34.4169147,40.2593071 34.2422339,40.6904341 34.28,41.13 C34.38,42.48 34.47,43.83 34.53,45.13 C34.53,45.36 34.33,45.6 34.23,45.84 C34.0574715,45.6689236 33.9063646,45.4775215 33.78,45.27 C33.38,44.42 33.05,43.52 32.58,42.7 C32.314885,42.3307845 31.945891,42.0488174 31.52,41.89 C30.99,41.64 30.66,41.89 30.71,42.49 C30.7863484,43.4245644 30.9233032,44.3531848 31.12,45.27 C31.27,46 31.6,46.69 31.81,47.41 C31.8265578,47.6594418 31.7994855,47.9098602 31.73,48.15 C31.54,48.01 31.28,47.92 31.15,47.74 C30.38,46.66 29.65,45.55 28.87,44.47 C28.3664565,43.701523 27.8048151,42.9727265 27.19,42.29 C25.9036221,40.7837601 24.7869013,39.1405372 23.86,37.39 C23.11,36.15 22.44,34.86 21.73,33.6 C21.2175887,32.8192469 20.7598283,32.0039656 20.36,31.16 C19.85,29.89 19.53,28.56 19.1,27.26 C18.46,25.33 17.74,23.42 17.1,21.48 C16.4084831,19.5034972 15.9716318,17.4469359 15.8,15.36 C15.8,14.86 15.8,14.36 15.8,13.89 C15.8,13.78 15.92,13.68 15.98,13.58 C16.04,13.64 16.14,13.69 16.16,13.76 C16.3811274,14.4934591 16.5482411,15.2421283 16.66,16 C16.822249,17.370365 17.1582832,18.7145019 17.66,20 C17.66,20.11 17.87,20.17 17.98,20.26 C18.0381363,20.1411933 18.0721256,20.0120336 18.08,19.88 C17.97,19.45 17.81,19.05 17.7,18.62 C17.36,17.14 16.98,15.62 16.7,14.18 C16.6234711,13.5155296 16.6234711,12.8444704 16.7,12.18 C16.7,12 16.93,11.83 17.05,11.66 C17.1686978,11.8019545 17.2663641,11.9602413 17.34,12.13 C17.4708518,12.7925954 17.661636,13.4419314 17.91,14.07 C19.0874733,16.3383848 20.4241519,18.5205125 21.91,20.6 C22.7982352,21.7266118 23.4542223,23.0181927 23.84,24.4 C24.07,25.32 24.41,26.21 24.72,27.11 C24.9,27.66 25.58,28.11 25.97,27.99 C26.36,27.87 26.74,27.99 26.89,28.43 C26.9931284,28.7309415 27.0766368,29.0382527 27.14,29.35 C27.38,30.53 27.53,31.74 27.85,32.89 C28.4794553,35.0508303 29.5522548,37.0567951 31,38.78 C31.2535575,39.0920056 31.5421155,39.3738529 31.86,39.62 C32.02,39.75 32.29,39.74 32.51,39.8 C32.5644667,39.5862554 32.6045564,39.3691027 32.63,39.15 C32.63,38.84 32.63,38.54 32.63,38.23 C32.7723906,37.5735045 32.8195408,36.8999307 32.77,36.23 C32.47,34.86 31.98,33.53 31.6,32.23 C31.5361188,31.9993629 31.5724248,31.7524818 31.7,31.55 C32.08,31.03 32.58,30.55 32.59,29.87 C32.6,29.19 32.79,28.36 32.74,27.62 C32.64,26.19 32.43,24.77 32.24,23.35 C32.14,22.56 31.96,21.79 31.89,21 C31.7448906,20.116518 31.5377109,19.2443583 31.27,18.39 C30.844877,16.8483351 30.2124357,15.3715173 29.39,14 C29.2767661,13.8063882 29.1389552,13.6282425 28.98,13.47 C28.91,13.4 28.75,13.41 28.64,13.39 C28.6215517,13.4891491 28.6215517,13.5908509 28.64,13.69 C28.9678574,14.8730573 29.1459159,16.0925901 29.17,17.32 C29.17,19.07 29.33,20.83 29.39,22.59 C29.39,22.75 29.2,22.93 29.09,23.1 C28.94,23 28.72,22.94 28.66,22.8 C28.4774712,22.4041841 28.3431749,21.9878655 28.26,21.56 C28.2191222,20.8060133 28.1154294,20.0567496 27.95,19.32 C26.9833333,16.6933333 25.9566667,14.09 24.87,11.51 C24.61,10.89 24.53,10.6 25.37,10.31 C26.0665352,10.0121012 26.5349708,9.3462257 26.58,8.59 C26.53,7.83 26.36,7.08 26.34,6.33 C26.3864253,5.24031292 25.8831659,4.19999315 25,3.56 C24.85,3.45 24.68,3.37 24.51,3.27 C24.442571,3.45840178 24.3923654,3.65253003 24.36,3.85 C24.36,5.33 24.28,6.85 24.23,8.28 C24.23,8.78 23.96,8.89 23.52,8.61 C23.3988469,8.54038845 23.281971,8.46358432 23.17,8.38 C22.6391337,8.03010985 21.9508663,8.03010985 21.42,8.38 C20.6236869,9.10039536 20.414092,10.2675509 20.91,11.22 C21.1270961,11.6879102 21.2946738,12.1772371 21.41,12.68 C21.51,13.16 21.14,13.18 20.91,12.97 C20.5072627,12.6216722 20.1687936,12.2053552 19.91,11.74 C19.55,11 19.13,10.81 18.44,11.23 C18.3313301,11.3263935 18.1861118,11.3707626 18.0421248,11.3515643 C17.8981377,11.332366 17.7696176,11.2514985 17.69,11.13 C17.4999344,10.9661079 17.2366742,10.9165081 17,11 C16.341241,11.2656394 15.9666502,11.9643143 16.11,12.66 C16.11,12.85 15.96,13.06 15.87,13.26 C15.7201726,13.1573514 15.5546918,13.0796768 15.38,13.03 C14.74,12.95 14.11,12.89 13.47,12.85 C13.42,12.85 13.33,12.95 13.31,13.03 C13.18,13.52 12.7,13.88 12.89,14.5 C12.96,14.71 12.73,15.07 12.54,15.29 C12.4542156,15.4234277 12.2929247,15.4873291 12.1390358,15.4488569 C11.9851468,15.4103846 11.8729026,15.2780995 11.86,15.12 C11.5950836,14.3125275 11.4534906,13.469712 11.44,12.62 C11.4924808,11.9303768 11.3577365,11.2393808 11.05,10.62 C10.77,10 10.44,9.38 10.1,8.78 C9.97310222,8.51551405 9.79656893,8.27787309 9.58,8.08 C8.85,7.51 8.2,8.08 7.52,8.28 C6.84,8.48 6.98,8.84 7.17,9.28 C7.56070048,10.1645336 7.89470892,11.0730365 8.17,12 C8.48,13.19 8.54,14.44 8.92,15.6 C9.48250948,17.262143 10.1300293,18.8942936 10.86,20.49 C11.36,21.63 12.03,22.69 12.6,23.8 C13.3061926,25.4232658 14.3256516,26.8912868 15.6,28.12 C15.762148,28.2477295 15.8865739,28.417087 15.96,28.61 C16.11,29.18 16.2,29.78 16.36,30.36 C16.5202147,31.1382407 16.7374677,31.9036398 17.01,32.65 C17.22,33.15 17.01,33.19 16.65,33.28 C16.1222225,33.3653876 15.6056692,33.50962 15.11,33.71 C14.7238328,33.9222655 14.2392804,33.800036 14,33.43 C12.5077566,31.3334769 11.1995528,29.1118725 10.09,26.79 C9.92328475,26.4377932 9.72231645,26.1028461 9.49,25.79 C9.41,25.68 9.1,25.61 9.04,25.67 C8.93402054,25.8106561 8.88091896,25.9841213 8.89,26.16 C8.89,26.29 9.07,26.4 9.08,26.53 C9.09982953,26.7762681 9.09982953,27.0237319 9.08,27.27 C8.85,27.2 8.53,27.21 8.4,27.05 C8.00785641,26.6765797 7.48105535,26.4781273 6.94,26.5 C6.53,26.5 6.39,26.69 6.32,27.1 C6.23141706,27.4510799 6.09336904,27.7877824 5.91,28.1 C5.68493059,28.413888 5.49069595,28.7487754 5.33,29.1 C5.18,29.69 5.09,29.74 4.53,29.43 C4.08696856,29.2187276 3.61524272,29.0738404 3.13,29 C2.21,28.8 1.83,29.67 1.21,30.06 C0.82,30.31 0.88,30.68 1.01,31.06 C1.52796666,32.2874609 2.32184315,33.3790411 3.33,34.25 C4.18,35.11 5.13,35.87 6.01,36.71 C6.49027604,37.1484384 6.92882344,37.6305058 7.32,38.15 C8.08,39.15 8.32,39.27 9.52,38.91 C10.0513624,38.6807581 10.6704403,38.8365525 11.03,39.29 C11.57,39.98 12.1,40.67 12.61,41.39 C12.69,41.52 12.61,41.76 12.61,41.95 C12.4510515,41.9759412 12.2889485,41.9759412 12.13,41.95 C11.76,41.81 11.42,41.58 11.05,41.46 C10.49,41.26 9.91,41.13 9.34,40.96 C8.29243042,40.4850101 7.08328103,40.5256849 6.07,41.07 C5.38,41.52 5.3,42.16 6.07,42.59 C6.84,43.02 7.28,43.18 7.87,43.5 C8.08321662,43.6032721 8.22854281,43.8087097 8.25492792,44.044146 C8.28131303,44.2795824 8.18506721,44.5120927 8,44.66 C7.70306963,44.8829528 7.42542374,45.1304925 7.17,45.4 C7.03285409,45.6103961 6.99968812,45.8720388 7.08,46.11 C7.23425815,46.3216978 7.46985201,46.4594296 7.73,46.49 C8.29671706,46.505506 8.86154863,46.5623233 9.42,46.66 C9.85638275,46.866695 10.3781321,46.73205 10.66,46.34 C10.99,45.94 11.29,45.95 11.73,46.18 C13.2343134,47.0918812 14.8701824,47.7664663 16.58,48.18 C17,48.26 17.52,48.18 17.85,48.35 C18.4453013,48.7875481 19.0099544,49.2653315 19.54,49.78 C19.9369097,50.2454857 20.3942985,50.6557903 20.9,51 C21.3,51.2 21.2,51.28 21.01,51.5 C20.56,52.01 20.08,51.71 19.65,51.5 C18.24,50.81 17.91,50.84 16.8,51.87 C16.26,52.37 16.25,52.73 16.92,53.06 C17.79,53.49 18.74,53.74 19.6,54.16 C21.29,54.98 23.14,55.02 24.92,55.39 C25.76,55.56 26.58,55.79 27.4,56.04 C27.57,56.04 27.68,56.3 27.81,56.44 C27.61,56.56 27.42,56.76 27.21,56.77 C25.9729354,56.8747462 24.7312436,56.9148007 23.49,56.89 C22.7905211,56.8877077 22.1367294,57.2371482 21.75,57.82 C21.07,58.64 21.32,59.36 22.37,59.6 C23.25,59.81 24.14,59.97 25.04,60.11 C26.24,60.31 27.45,60.46 28.67,60.63 C29.44,60.73 30.2,60.83 30.98,60.91 C31.33,60.91 31.69,60.91 32.06,60.91 C32.2622702,60.8805939 32.4677298,60.8805939 32.67,60.91 C34.2669039,61.3513042 35.927378,61.5170134 37.58,61.4 C37.7821924,61.3950001 37.9819184,61.3543778 38.17,61.28 C38.9431257,60.8310541 39.8553371,60.6849578 40.73,60.87 C41.047758,60.9573488 41.388151,60.8825372 41.64,60.67 C42.1438662,60.2252144 42.7722075,59.9459515 43.44,59.87 C44.56,59.58 45.67,59.28 46.79,59.02 C47.1736537,58.8804872 47.5853699,58.8358846 47.99,58.89 C49.81,59.43 51.59,60.09 53.41,60.63 C54.52,60.96 55.67,61.12 56.8,61.42 C58.3956195,61.7909229 60.0439574,61.8789246 61.67,61.68 C62.0869652,61.688843 62.4441468,61.3833021 62.5,60.97 C62.59,60.5 62.32,60.3 61.9,60.21 C60.9,60.02 59.9,59.81 58.9,59.58 C57.9,59.35 57.03,59.06 56.07,58.86 C54.69,58.57 53.3,58.35 51.91,58.07 C51.74,58.07 51.6,57.79 51.45,57.65 C51.56976,57.520506 51.707903,57.4093177 51.86,57.32 C53.77,56.61 55.68,55.92 57.58,55.2 C57.9,55.09 58.04,55.15 58.11,55.46 C58.1818501,55.9693178 58.521697,56.4008088 59,56.59 C59.7085514,56.8927954 60.4503415,57.110969 61.21,57.24 C63.0029037,57.3885785 64.8074934,57.1812716 66.52,56.63 C67.2732409,56.3817251 67.9948205,56.0461067 68.67,55.63 C69.0300853,55.4139425 69.3654187,55.1590891 69.67,54.87 C70.3,54.32 70.9,53.74 71.51,53.16 C71.6560595,53.0458885 71.772648,52.8984383 71.85,52.73 C72.2866424,51.887583 72.9612693,51.1920914 73.79,50.73 L74.99,49.73 C75.29,49.48 75.59,49.24 75.89,48.98 L76.08,48.82 C76.41,48.54 76.62,48.12 76.97,47.89 C77.71,47.39 78.51,46.98 79.28,46.53 L79.71,46.3 C80.14,46.06 80.58,45.83 80.99,45.55 C81.17,45.43 81.22,45.12 81.32,44.89 L81.32,44.89 L80.66,44.95 C80.66,44.95 80.59,45 80.55,45.01 L79.45,45.51 C78.12,46.11 76.81,46.71 75.45,47.26 L75.07,47.39 C74.6,47.52 74.07,47.6 73.63,47.73 C73.4483148,47.7783488 73.2710221,47.8419066 73.1,47.92 C72.4115921,48.3153187 71.7440382,48.745891 71.1,49.21 C69.8093697,50.1041209 68.5982194,51.1078366 67.48,52.21 C67.11,52.51 67.15,52.76 67.61,52.92 C67.88,53 68.18,53.18 68.41,53.11 C68.88859,52.9429317 69.3478829,52.725019 69.78,52.46 C69.9602925,52.4137054 70.1443552,52.3835861 70.33,52.37 C70.72,52.37 70.66,52.62 70.5,52.75 C70.0498665,53.221012 69.5134925,53.6012266 68.92,53.87 C67.931995,54.0853001 66.9291449,54.2256991 65.92,54.29 C65.15,54.38 64.37,54.48 63.6,54.54 C63.01,54.54 62.42,54.48 61.84,54.54 C61.26,54.6 60.47,54.09 59.84,54.62 C59.75,54.7 59.55,54.62 59.41,54.62 C59.27,54.62 59.14,54.54 59.14,54.49 C59.1354387,54.3696263 59.1827822,54.2530884 59.27,54.17 C59.4030775,54.0879587 59.5481624,54.0272255 59.7,53.99 C60.5034789,53.7061489 61.2883544,53.3721593 62.05,52.99 C64.12,51.8 66.17,50.55 68.2,49.29 C69.1702838,48.7340981 69.8872043,47.823609 70.2,46.75 C70.2585608,46.4035495 70.5586351,46.1499656 70.91,46.15 C71.0500812,46.1466769 71.1859412,46.1013902 71.3,46.02 C71.6333685,45.6981441 72.023217,45.440505 72.45,45.26 C72.74,45.12 73.02,44.99 73.29,44.83 L73.65,44.6 C74.98,43.78 76.19,42.77 77.44,41.84 C77.5892596,41.7434226 77.7100745,41.6088003 77.79,41.45 C77.8301969,41.2957982 77.7928974,41.1316804 77.69,41.01 C77.63,40.92 77.74,40.68 77.83,40.57 C77.92,40.46 78.18,40.13 78.37,39.92 L78.79,39.4 L78.89,39.27 L79.23,38.86 C79.58,38.44 79.93,38.02 80.29,37.61 L80.36,37.52 C80.7040603,37.1552626 81.0787665,36.8207035 81.48,36.52 C81.9253186,36.2375147 82.3497465,35.9233712 82.75,35.58 C83.35,35 83.13,34.32 82.45,34.16 Z M39.12,16.55 L39,16.44 L39.2,16.17 C39.2076369,16.3015298 39.1800192,16.4327136 39.12,16.55 Z M24.56,10.15 L24.24,10.41 C24.24,10.28 24.19,10.15 24.17,10.02 C24.3104107,10.0213949 24.4468345,10.0668695 24.56,10.15 L24.56,10.15 Z M22.3,13.63 C22.2943172,13.7804819 22.2457429,13.9262048 22.16,14.05 C22.16,14.11 21.87,14.13 21.85,14.05 C21.749513,13.8588162 21.6690844,13.6577448 21.61,13.45 C21.8506122,13.45733 22.0864692,13.5188579 22.3,13.63 Z M14.16,35.63 C13.96,35.55 13.67,35.53 13.57,35.38 C12.9,34.38 12.27,33.33 11.62,32.3 C11.4305687,32.0114345 11.2602054,31.7107934 11.11,31.4 C10.987394,31.1104013 10.8838401,30.8131014 10.8,30.51 C10.8,30.44 10.9,30.34 10.95,30.25 C11.02,30.32 11.12,30.37 11.17,30.45 C11.6,31.04 12.04,31.61 12.43,32.23 C13.02,33.12 13.59,34.03 14.13,34.95 C14.23,35.13 14.16,35.4 14.16,35.63 Z M40.55,7.46 C40.5826039,7.61833904 40.5826039,7.78166096 40.55,7.94 C40.49,7.94 40.38,7.86 40.38,7.84 C40.4272943,7.70934514 40.4841136,7.58233736 40.55,7.46 L40.55,7.46 Z M41.49,56.63 C41.2496739,56.6607618 41.0122319,56.7109256 40.78,56.78 C40.1639093,56.9243953 39.6060528,57.252136 39.18,57.72 C38.55,58.42 38.01,58.28 37.37,57.57 C36.8545144,57.0508733 36.2688181,56.606552 35.63,56.25 C34.42,55.53 33.16,54.89 31.94,54.19 C31.33,53.84 30.77,53.42 30.17,53.04 L27.74,51.5 C27.25,51.19 26.74,50.86 26.28,50.5 C25.28,49.64 24.41,48.87 23.57,48.03 C22.73,47.19 22.13,46.42 21.42,45.6 C21,45.12 20.57,44.6 20.17,44.13 C19.04,42.7 17.9,41.28 16.82,39.82 C16.12,38.89 15.52,37.89 14.88,36.91 C14.8245338,36.790216 14.7906796,36.6615699 14.78,36.53 C14.904487,36.5540564 15.0232636,36.6015671 15.13,36.67 C15.7,37.24 16.26,37.81 16.8,38.4 C17.34,38.99 17.58,39.31 17.98,39.76 C18.0331771,39.8291791 18.1130465,39.8727443 18.2,39.88 C19.236939,39.8006719 20.2304375,40.3109512 20.77,41.2 C21.03,41.53 21.27,41.7 21.67,41.54 C22.07,41.38 22.13,41.54 22.35,41.8 C23.2446911,43.2578201 24.2264727,44.6603652 25.29,46 C26.55,47.37 27.56,49 28.73,50.45 C29.2060622,51.0261317 29.7462117,51.5461515 30.34,52 C30.9484768,52.5966684 31.642836,53.0988991 32.4,53.49 C33.0654061,53.9124836 33.9259982,53.8642261 34.54,53.37 C35.01,52.97 35.37,53.13 35.73,53.46 C36.09,53.79 36.5,54.2 36.86,54.58 C37.5455924,55.2363634 38.5121468,55.5098458 39.44,55.31 C39.54,55.31 39.7,55.05 39.71,54.91 C39.8048395,54.0991706 39.5461733,53.2867402 39,52.68 C38,51.61 37.18,50.42 36.31,49.26 C35.85,48.63 36.05,48.26 36.53,47.59 C37.32,46.51 38.14,45.39 37.97,43.9 C37.97,43.62 37.87,43.19 38.32,43.2 C38.77,43.21 38.72,43.57 38.75,43.91 C38.782857,44.3319258 38.8668042,44.7483038 39,45.15 C39.11,45.48 39.36,45.62 39.65,45.28 C39.94,44.94 40.3,44.52 40.65,44.17 C40.76,44.05 40.99,44.06 41.17,44.01 C41.2052863,44.1849047 41.2052863,44.3650953 41.17,44.54 C40.6198233,45.8514596 40.2822532,47.2422483 40.17,48.66 C40.06,49.39 40.02,50.13 39.9,50.86 C39.8955715,51.6496311 40.1101893,52.4250244 40.52,53.1 C40.8248214,54.1111324 41.2442095,55.0841129 41.77,56 C42,56.38 41.93,56.58 41.49,56.63 L41.49,56.63 Z M42.14,53.03 C42.07,53.19 41.86,53.3 41.72,53.42 C41.72,53.25 41.62,53.08 41.58,52.91 C41.7355526,52.7736064 41.8991824,52.6467098 42.07,52.53 C42.09,52.7 42.19,52.9 42.14,53 L42.14,53.03 Z M50,49 C49.3228576,49.8290225 48.7046751,50.7045025 48.15,51.62 C47.9161464,52.0687322 47.7058607,52.5293581 47.52,53 C47.4242081,53.2313627 47.2509965,53.4222489 47.03,53.54 C46.6519889,53.6902448 46.2463578,53.758418 45.84,53.74 C45.5,53.74 45.11,53.68 45.32,53.02 C45.709389,52.0992347 46.2097588,51.2294643 46.81,50.43 C48.03,48.43 49.22,46.49 50.33,44.43 C50.7608755,43.6580905 51.5255616,43.1298291 52.4,43 C53.1218567,42.8055388 53.8273526,42.5547701 54.51,42.25 C55.07,42.03 55.17,42.08 55.21,42.7 C54.21,44.12 53.27,45.51 52.21,46.8 C51.6,47.62 50.7,48.2 50,49 Z M65,47.3 C64.8082213,47.3346733 64.6117787,47.3346733 64.42,47.3 C64.5044581,47.0826062 64.6117241,46.8747782 64.74,46.68 C64.74,46.61 64.99,46.68 65.12,46.68 L65,47.3 Z M71.65,43.96 C71.65,44.04 71.38,44.04 71.24,44.07 L71.24,43.47 C71.2858545,43.438654 71.3365217,43.4150093 71.39,43.4 C71.5114784,43.3350977 71.6386838,43.2815375 71.77,43.24 C71.7509259,43.4706384 71.7073469,43.6985902 71.64,43.92 L71.65,43.96 Z" id="Shape"></path>
            <path d="M68.3,33.48 C68.8394629,32.9210766 69.3406009,32.3263928 69.8,31.7 C70.34,30.89 70.74,29.99 71.22,29.15 C71.5251376,28.6478162 71.859027,28.1636766 72.22,27.7 C72.22,27.64 72.57,27.7 72.64,27.7 C73.0070654,28.0875551 73.11977,28.6510778 72.93,29.15 C72.74,29.81 72.81,30.56 72.3,31.15 C72.2,31.25 72.11,31.43 71.99,31.44 C71.2868272,31.6417415 70.648912,32.0244906 70.14,32.55 C69.5238963,33.110408 69.1033744,33.8533301 68.94,34.67 C68.7447051,35.4511513 68.3716833,36.1766616 67.85,36.79 C67.4285093,37.3944998 67.0412352,38.022151 66.69,38.67 C66.0400281,39.6754969 65.325178,40.6375382 64.55,41.55 C63.691537,42.519255 62.7290852,43.3911625 61.68,44.15 C60.7491682,44.8742596 59.5161671,45.0810128 58.4,44.7 C57.97,44.54 57.9,44.36 58.08,43.95 C58.2502332,43.3243927 58.491819,42.7204282 58.8,42.15 C59.3484062,41.6330546 59.929615,41.1520543 60.54,40.71 C61.1692371,40.0963498 61.7415771,39.4269463 62.25,38.71 C63.08,37.55 63.75,36.28 64.61,35.15 C65.0887735,34.3385655 65.8568793,33.7383712 66.76,33.47 C66.98,33.42 67.32,33.4 67.44,33.47 C67.77,34 68,33.76 68.3,33.48 Z" id="Shape"></path>
            <path d="M44.07,15.78 C44.0011504,16.4983541 44.0011504,17.2216459 44.07,17.94 C44.3276651,19.4388283 44.4315377,20.9600587 44.38,22.48 C44.3668672,22.5575705 44.339761,22.6321125 44.3,22.7 C44.24,22.64 44.16,22.59 44.13,22.51 C44.0536526,22.3715707 44.0092349,22.2178173 44,22.06 C43.9941191,20.2851516 43.8267626,18.5145193 43.5,16.77 C43.5073158,16.3579029 43.5440762,15.9468557 43.61,15.54 C43.61,14.79 43.61,14.03 43.61,13.28 C43.5873404,12.995478 43.6575137,12.7112761 43.81,12.47 C44.2249795,11.8493303 44.4603124,11.1260279 44.49,10.38 C44.9,8.67 45.21,6.93 45.68,5.24 C45.9418716,4.62692246 46.3148021,4.06752665 46.78,3.59 C47.12,3.17 47.6,3.41 47.94,3.59 C48.46,3.84 48.94,4.18 48.87,4.92 C48.87,5.05 48.58,5.61 49.2,5.34 C49.25,5.69 49.43,6.1 49.32,6.4 C48.8630879,7.98531331 48.5287689,9.60341744 48.32,11.24 C48.24,11.61 48.11,11.97 48.01,12.33 C47.86,12.95 47.68,13.57 47.57,14.19 C47.57,14.38 47.74,14.59 47.76,14.8 C47.8308182,15.1295719 47.8308182,15.4704281 47.76,15.8 C47.65,16.07 47.32,16.08 47.08,15.86 C46.7861078,15.5241399 46.2950697,15.4443987 45.91,15.67 C45.5280711,15.9106452 45.0322727,15.8655727 44.7,15.56 C44.45,15.39 44.13,15.24 44.07,15.78 Z" id="Shape"></path>
            <path d="M20.81,30 C20.41,28.76 20.05,27.54 19.69,26.33 C19.53,25.79 19.37,25.26 19.25,24.72 C19.25,24.56 19.33,24.38 19.37,24.2 C19.5,24.33 19.69,24.43 19.74,24.58 C20.06,25.58 20.35,26.5 20.65,27.46 C21.0680416,29.1306096 21.7427317,30.7262516 22.65,32.19 C23.57,33.5 24.29,34.96 25.08,36.35 C25.1282673,36.4514131 25.1619347,36.5591487 25.18,36.67 C25.07,36.62 24.92,36.61 24.87,36.53 L20.81,30 Z" id="Shape"></path>
            <path d="M41.9,4 C42.45,6 43.02,8 43.55,10 C43.6077028,10.3308361 43.6077028,10.6691639 43.55,11 C43.55,11.09 43.4,11.17 43.32,11.25 C43.2655421,11.1642588 43.2186965,11.0739138 43.18,10.98 L41.86,5.7 C41.53,4.36 41.2,3.03 40.86,1.7 C40.86,1.6 41.01,1.45 41.09,1.33 C41.22,1.42 41.44,1.5 41.47,1.62 C41.66,2.38 41.77,3.16 41.9,4 Z" id="Shape"></path>
            <path d="M44.07,31 C44.0122711,31.135081 43.9384003,31.2626761 43.85,31.38 L43.69,31.12 C43.6798387,31.0806453 43.6798387,31.0393547 43.69,31 C43.77,30.61 43.84,30.23 43.92,29.85 C44,30.23 44,30.59 44.07,31 Z" id="Shape"></path>
            <path d="M48.17,20 C48.2732007,20.1400657 48.3541546,20.2952272 48.41,20.46 L48.24,20.51 C48.1874521,20.3453039 48.1637701,20.1727636 48.17,20 Z" id="Shape"></path>
            <path d="M44.2,24.87 C44.1483122,24.9647843 44.0723946,25.0441527 43.98,25.1 L43.98,24.64 C44.0704955,24.6981835 44.1458939,24.7770092 44.2,24.87 Z" id="Shape"></path>
            <path d="M20.68,42.76 C20.6482349,42.8500464 20.5970211,42.9319886 20.53,43 C19.84,42.25 19.15,41.49 18.48,40.73 C18.43,40.67 18.48,40.54 18.48,40.45 C18.5755421,40.4291475 18.6744579,40.4291475 18.77,40.45 C18.8639401,40.5187304 18.9451595,40.6033339 19.01,40.7 L20.68,42.76 Z" id="Shape"></path>
            <path d="M21.51,43.6 C21.4639204,43.6779905 21.4027226,43.7459882 21.33,43.8 L21.22,43.44 C21.3203862,43.4862948 21.4173041,43.5397667 21.51,43.6 L21.51,43.6 Z" id="Shape"></path>
        </g>
    </g>
</svg>